<svg xmlns="http://www.w3.org/2000/svg" xmlns:xlink="http://www.w3.org/1999/xlink" version="1.1" x="0px" y="0px" viewBox="0 0 100 125" enable-background="new 0 0 100 100" xml:space="preserve"><path fill="#000000" d="M80.558,54.992c0-0.001,0-0.001,0-0.002s0-0.001,0-0.002l-0.014-0.924l0,0l-0.01-0.837  c0-0.001,0-0.001,0-0.001c0-0.001,0-0.001,0-0.002l-0.014-0.727l-0.015-0.82c0-0.001-0.001-0.002-0.001-0.004  c0-0.001,0.001-0.003,0.001-0.004l-0.027-0.689c-0.001-0.015-0.008-0.025-0.01-0.039c-0.003-0.021-0.006-0.042-0.013-0.062  c-0.003-0.011-0.006-0.021-0.011-0.032c-0.004-0.01-0.011-0.017-0.017-0.025c-0.001-0.002-0.002-0.004-0.003-0.006  c-0.012-0.021-0.022-0.041-0.038-0.06c-0.016-0.018-0.033-0.032-0.052-0.047c-0.021-0.017-0.039-0.031-0.062-0.043  c-0.008-0.004-0.013-0.011-0.021-0.015l-0.188-0.081l0.01-0.157l0.164-2.677c0-0.001-0.001-0.003-0.001-0.004  c0.001-0.003,0.002-0.005,0.002-0.007l0.037-1.186c0-0.006-0.003-0.012-0.003-0.018c0-0.005,0.002-0.01,0.002-0.015l-0.037-0.685  c0-0.001-0.001-0.002-0.001-0.004s0.001-0.004,0.001-0.007l-0.052-0.628l0,0l-0.052-0.637c0-0.002-0.001-0.003-0.002-0.005  c0-0.003,0.001-0.005,0.001-0.007l-0.047-0.412c0-0.001-0.001-0.002-0.001-0.003l0,0l-0.047-0.385c0-0.002-0.002-0.004-0.002-0.007  c-0.001-0.002,0-0.004,0-0.006l-0.047-0.3c-0.002-0.012-0.009-0.021-0.012-0.031c-0.003-0.013-0.001-0.025-0.005-0.037l-0.052-0.146  c-0.006-0.016-0.018-0.026-0.024-0.041c-0.01-0.019-0.018-0.038-0.03-0.055c-0.005-0.008-0.01-0.015-0.016-0.021  c-0.016-0.018-0.034-0.03-0.052-0.044c-0.011-0.009-0.018-0.021-0.029-0.028l-0.521-0.333l-0.009-0.333  c0-0.003-0.002-0.006-0.002-0.009c0-0.004,0.001-0.007,0.001-0.01l-0.055-0.7l0,0l-0.005-0.104l-0.005-0.103  c-0.001-0.017-0.009-0.03-0.012-0.046l-0.097-1.333c0-0.004-0.002-0.006-0.003-0.01c0-0.002,0.001-0.004,0.001-0.007l-0.22-1.868  c0,0,0,0,0-0.001l-0.107-1.05l-0.127-1.257v-0.001c0-0.001,0-0.001,0-0.002l-0.154-1.387c0-0.001-0.001-0.002-0.001-0.003  l-0.169-1.439l0,0v-0.001l-0.174-1.435V31.59c0-0.001,0-0.003,0-0.004l-0.365-2.732c0,0,0,0,0-0.001l-0.159-1.222  c0-0.001-0.001-0.001-0.001-0.002l-0.102-0.852v-0.002l0,0v-0.002c0-0.001,0-0.002,0-0.003l-0.089-0.797  c0-0.001-0.001-0.003-0.001-0.004l-0.127-1.071c0-0.004-0.003-0.006-0.003-0.01c-0.001-0.004,0.001-0.008,0-0.012l-0.309-1.744  c-0.001-0.008-0.006-0.013-0.008-0.02c-0.002-0.008,0-0.015-0.002-0.022l-0.474-1.579c-0.017-0.056-0.047-0.103-0.084-0.144  c-0.002-0.003-0.003-0.007-0.005-0.01s-0.001-0.009-0.003-0.012c-0.001-0.002-0.004-0.003-0.005-0.005  c-0.002-0.003-0.002-0.006-0.004-0.008l-0.708-0.951c-0.004-0.006-0.011-0.009-0.016-0.014c-0.013-0.016-0.028-0.029-0.044-0.043  c-0.011-0.009-0.018-0.021-0.029-0.029l-0.919-0.628c-0.001-0.001-0.002-0.001-0.003-0.001l-1.259-0.857  c-0.002-0.001-0.004-0.001-0.006-0.003c-0.003-0.001-0.004-0.004-0.007-0.006l-2.391-1.49c-0.005-0.003-0.01-0.003-0.015-0.006  c-0.005-0.002-0.007-0.007-0.012-0.009l-2.822-1.458c-0.004-0.002-0.009-0.002-0.014-0.004s-0.008-0.007-0.013-0.009l-3.229-1.354  c-0.006-0.002-0.012-0.001-0.019-0.004c-0.006-0.002-0.01-0.007-0.017-0.009l-3.445-1.06c-0.006-0.002-0.011,0-0.017-0.002  c-0.006-0.001-0.011-0.006-0.017-0.007l-3.6-0.755c-0.005-0.001-0.01,0.001-0.016,0c-0.004-0.001-0.007-0.003-0.011-0.004  l-1.838-0.253c-0.002,0-0.005,0.001-0.007,0c-0.003,0-0.005-0.002-0.008-0.002l-1.865-0.183c-0.003,0-0.006,0.001-0.009,0.001  c-0.002,0-0.004-0.002-0.007-0.002l-1.866-0.104c-0.004,0-0.007,0.001-0.01,0.001c-0.004,0-0.007-0.002-0.011-0.002h-3.759  c-0.004,0-0.007,0.002-0.011,0.002c-0.003,0-0.006-0.001-0.01-0.001l-1.866,0.104c-0.003,0-0.005,0.002-0.007,0.002  c-0.004,0-0.007-0.001-0.01-0.001l-1.856,0.183c-0.003,0-0.005,0.002-0.008,0.002c-0.002,0.001-0.004,0-0.006,0l-1.847,0.253  c-0.004,0.001-0.008,0.003-0.012,0.004c-0.005,0.001-0.01-0.001-0.015,0l-3.6,0.755c-0.006,0.001-0.011,0.006-0.017,0.007  c-0.005,0.002-0.011,0-0.017,0.002l-3.445,1.06c-0.007,0.002-0.011,0.007-0.017,0.009c-0.007,0.003-0.013,0.002-0.019,0.004  l-3.229,1.354c-0.005,0.002-0.008,0.007-0.013,0.009s-0.01,0.002-0.014,0.004l-2.822,1.458c-0.005,0.002-0.007,0.007-0.012,0.009  c-0.005,0.003-0.01,0.003-0.015,0.006l-2.391,1.49c-0.003,0.002-0.004,0.005-0.007,0.006c-0.002,0.002-0.004,0.002-0.006,0.003  l-1.259,0.857c-0.001,0-0.002,0-0.003,0.001l-0.919,0.628c-0.012,0.008-0.019,0.021-0.028,0.029  c-0.017,0.014-0.032,0.026-0.045,0.043c-0.005,0.005-0.012,0.008-0.016,0.014l-0.708,0.951c-0.002,0.002-0.002,0.005-0.004,0.008  c-0.001,0.002-0.004,0.003-0.005,0.005l-0.042,0.062c-0.011,0.015-0.012,0.031-0.02,0.047c-0.01,0.02-0.023,0.035-0.03,0.057  l-0.474,1.579c-0.002,0.008,0,0.016-0.002,0.023c-0.002,0.007-0.007,0.013-0.008,0.02l-0.305,1.744c-0.001,0.003,0.001,0.007,0,0.01  c0,0.004-0.003,0.006-0.003,0.01l-0.131,1.073c0,0.001-0.001,0.002-0.001,0.003l-0.089,0.797c0,0.001,0,0.002,0,0.003v0.002l0,0  v0.002l-0.102,0.852c0,0.001-0.001,0.001-0.001,0.002l-0.159,1.224l-0.361,2.732c0,0.001,0,0.002,0,0.003l0,0l-0.178,1.435  c0,0.001,0,0.001,0,0.002l0,0l-0.169,1.439c0,0.001-0.001,0.002-0.001,0.003l-0.154,1.387c0,0.001,0,0.001,0,0.002v0.001  l-0.127,1.257l-0.107,1.05c0,0.001,0,0.001,0,0.001l-0.22,1.868c0,0.002,0.001,0.005,0.001,0.007  c-0.001,0.004-0.003,0.006-0.003,0.01l-0.097,1.335c-0.003,0.016-0.011,0.028-0.012,0.044l-0.005,0.103l-0.005,0.104v0.001  l-0.051,0.701c0,0.002,0.001,0.005,0.001,0.007c0,0.003-0.002,0.005-0.002,0.008l-0.012,0.334l-0.52,0.334  c-0.013,0.009-0.021,0.021-0.031,0.03c-0.017,0.014-0.034,0.025-0.049,0.042c-0.006,0.007-0.01,0.014-0.016,0.021  c-0.013,0.018-0.021,0.037-0.03,0.057c-0.008,0.014-0.019,0.024-0.024,0.04l-0.052,0.146c-0.004,0.012-0.002,0.024-0.005,0.037  c-0.003,0.011-0.01,0.02-0.012,0.031l-0.047,0.3c0,0.002,0.001,0.004,0,0.006c0,0.003-0.002,0.005-0.002,0.007l-0.047,0.385l0,0  c0,0.001-0.001,0.002-0.001,0.003l-0.047,0.412c0,0.002,0.001,0.003,0,0.005c0,0.002-0.001,0.003-0.001,0.005l-0.056,0.638  c0,0.001,0,0.002,0,0.003v0.001l-0.047,0.628c0,0.002,0.001,0.003,0.001,0.005c0,0.001-0.001,0.002-0.001,0.003l-0.038,0.685  c0,0.005,0.002,0.01,0.002,0.015c0,0.006-0.003,0.011-0.003,0.018l0.038,1.186c0,0.002,0.001,0.004,0.002,0.007  c0,0.001-0.001,0.003-0.001,0.004l0.159,2.677l0.01,0.157l-0.188,0.081c-0.009,0.004-0.014,0.011-0.022,0.016  c-0.022,0.012-0.042,0.026-0.062,0.043c-0.019,0.016-0.036,0.029-0.052,0.048c-0.015,0.018-0.025,0.037-0.037,0.059  c-0.002,0.003-0.005,0.006-0.007,0.01c-0.004,0.007-0.009,0.013-0.013,0.021c-0.005,0.012-0.008,0.023-0.012,0.035  c-0.006,0.02-0.009,0.04-0.012,0.061c-0.002,0.014-0.009,0.025-0.01,0.04l-0.023,0.689c0,0.001,0,0.002,0,0.002  c0,0.001,0,0.001,0,0.002l-0.019,0.82v0.001v0.001l-0.014,0.727c0,0.001,0,0.001,0,0.002c0,0,0,0,0,0.001l-0.01,0.839l-0.01,0.924  l0,0c0,0.001,0,0.001,0,0.001l-0.009,0.984c0,0.001,0,0.001,0,0.002v0.001V57v0.001c0,0.001,0,0.001,0,0.002l0.009,1.008  c0,0,0,0,0,0.001l0,0l0.01,0.951c0,0.001,0,0.001,0,0.002s0,0.001,0,0.002l0.019,0.849c0,0.001,0.001,0.002,0.001,0.003  c0,0.002-0.001,0.003-0.001,0.005L20,60.513c0,0.002,0.001,0.004,0.002,0.007c0,0.001-0.001,0.002-0.001,0.004l0.037,0.529  c0,0.002,0.002,0.002,0.002,0.004c0,0.004-0.001,0.007-0.001,0.01l0.038,0.356c0.001,0.006,0.007,0.01,0.008,0.016  c0.002,0.015-0.001,0.028,0.003,0.042l0.047,0.174c0.002,0.008,0.011,0.012,0.014,0.02c0.021,0.064,0.058,0.123,0.113,0.169  c0.006,0.004,0.008,0.011,0.014,0.015c0.002,0.001,0.003,0.004,0.005,0.005l1.879,1.335l0.002,0.035  c0,0.002,0.001,0.004,0.001,0.006c0,0.001,0,0.002,0,0.003l0.047,0.703c0,0.004,0.002,0.007,0.003,0.01  c0,0.003-0.001,0.005-0.001,0.008l0.034,0.295l0.023,0.678c0,0.005,0.003,0.009,0.003,0.013s-0.001,0.007-0.001,0.011l0.117,1.214  c0,0.001,0.002,0.002,0.002,0.003c0,0.004-0.001,0.007-0.001,0.011l0.192,1.435c0,0.003,0.004,0.005,0.004,0.008  c0.001,0.005-0.001,0.009,0,0.014l0.286,1.477c0.001,0.003,0.003,0.004,0.004,0.007c0.001,0.005,0,0.011,0.001,0.016  c0,0.001,0.001,0.002,0.002,0.003c0,0.001,0,0.002,0,0.003l0.394,1.425c0.001,0.003,0.004,0.004,0.005,0.007  c0.001,0.005,0,0.01,0.002,0.015l0.445,1.304c0.001,0.004,0.005,0.005,0.006,0.009c0.003,0.005,0.002,0.011,0.004,0.017l0.432,1.017  c0.001,0.002,0.003,0.003,0.004,0.005c0.002,0.004,0.001,0.007,0.003,0.011l0.786,1.643l0.066,0.297  c0.002,0.008,0.01,0.012,0.012,0.019c0.005,0.017,0.004,0.033,0.011,0.05l0.586,1.35c0.001,0.001,0.002,0.002,0.003,0.003  c0.001,0.003,0.001,0.006,0.002,0.009l0.783,1.65c0.002,0.003,0.005,0.005,0.007,0.008c0.003,0.005,0.002,0.01,0.005,0.015  l0.168,0.3l0,0l0.94,1.722c0.003,0.005,0.008,0.007,0.012,0.012c0.004,0.007,0.004,0.015,0.009,0.021l1.06,1.532  c0.007,0.01,0.019,0.014,0.025,0.022c0.013,0.016,0.021,0.033,0.036,0.047l1.364,1.195c0.003,0.002,0.006,0.001,0.009,0.003  c0.005,0.005,0.008,0.011,0.013,0.015l1.181,0.891c0.001,0.001,0.003,0.001,0.005,0.002c0.003,0.002,0.004,0.005,0.007,0.007  l1.083,0.75c0.002,0.001,0.004,0.001,0.006,0.002c0.001,0.001,0.002,0.003,0.004,0.004l1.026,0.666  c0.002,0.001,0.004,0.001,0.006,0.002c0.003,0.001,0.004,0.004,0.006,0.005l1.031,0.618c0.001,0.001,0.002,0,0.003,0.001  c0.003,0.001,0.004,0.004,0.007,0.006l1.13,0.629c0.002,0.001,0.004,0,0.005,0.001s0.001,0.001,0.001,0.001l1.291,0.691  c0.001,0.001,0.002,0.002,0.003,0.003l1.217,0.65l0,0l0.909,0.492c0.001,0.001,0.002,0,0.004,0.001c0,0,0,0.001,0.001,0.001  l0.572,0.3c0.009,0.005,0.02,0.003,0.028,0.007c0.013,0.006,0.022,0.016,0.036,0.02l0.323,0.099  c0.014,0.005,0.027,0.004,0.042,0.006c0.009,0.002,0.016,0.008,0.025,0.009l1.331,0.15c0.005,0,0.01,0,0.015,0.001h0.001  l0.914,0.065c0.006,0.001,0.012,0.001,0.018,0.001l1.076,0.06c0.001,0,0.002,0,0.002,0c0.002,0,0.003,0.001,0.004,0.001l1.219,0.047  c0.002,0,0.003,0,0.005,0l1.312,0.033c0.002,0,0.003,0,0.005,0l1.383,0.019c0.001,0,0.001,0,0.002,0l1.425,0.01  c0.001,0,0.002,0,0.003,0h3.028c0.001,0,0.002,0,0.003,0l1.425-0.01c0.001,0,0.001,0,0.002,0l1.383-0.019c0.002,0,0.003,0,0.005,0  l1.312-0.033c0.002,0,0.003,0,0.005,0l1.219-0.047c0.001,0,0.002-0.001,0.004-0.001c0,0,0.001,0,0.002,0l1.079-0.06  c0.007,0,0.013,0,0.02-0.001l0.91-0.065h0.001c0.005-0.001,0.009-0.001,0.014-0.001l1.331-0.15c0.01-0.001,0.017-0.007,0.025-0.009  c0.015-0.002,0.028-0.001,0.042-0.006l0.323-0.099c0.013-0.004,0.021-0.013,0.033-0.019c0.01-0.004,0.021-0.002,0.03-0.007  l0.576-0.3c0.002-0.001,0.003-0.003,0.004-0.004c0.001,0,0.001,0,0.002,0l0.9-0.489c0.001-0.001,0.002-0.001,0.003-0.001  l1.219-0.651l1.298-0.693c0.001-0.001,0.002-0.002,0.003-0.002c0.001-0.001,0.002,0,0.003-0.001l1.13-0.629  c0.003-0.002,0.004-0.005,0.007-0.006c0.001-0.001,0.002,0,0.003-0.001l1.031-0.618c0.002-0.001,0.003-0.004,0.006-0.005  c0.002-0.001,0.004-0.001,0.006-0.002l1.026-0.666c0.002-0.001,0.003-0.003,0.004-0.004c0.002-0.001,0.004-0.001,0.006-0.002  l1.083-0.75c0.003-0.002,0.005-0.006,0.008-0.008c0.002-0.001,0.004-0.001,0.005-0.002l1.177-0.891  c0.005-0.004,0.007-0.01,0.012-0.014c0.003-0.002,0.006-0.001,0.009-0.003l1.364-1.195c0.016-0.014,0.022-0.031,0.035-0.046  c0.008-0.009,0.019-0.013,0.025-0.022l1.063-1.532c0.005-0.007,0.005-0.015,0.01-0.021c0.003-0.006,0.009-0.007,0.012-0.013  l0.942-1.726l0.164-0.3c0.002-0.004,0.002-0.008,0.004-0.012c0.001-0.003,0.005-0.004,0.006-0.007l0.783-1.65  c0.001-0.003,0.001-0.006,0.002-0.009c0.001-0.001,0.002-0.002,0.003-0.003l0.586-1.35c0.007-0.017,0.006-0.033,0.011-0.05  c0.002-0.007,0.01-0.011,0.012-0.019l0.066-0.297l0.786-1.643c0.002-0.004,0.001-0.007,0.003-0.011  c0.001-0.002,0.003-0.003,0.004-0.005l0.432-1.017c0.002-0.006,0.001-0.012,0.004-0.017c0.001-0.004,0.005-0.005,0.006-0.009  l0.445-1.304c0.002-0.005,0-0.01,0.002-0.015c0.001-0.003,0.004-0.004,0.005-0.007l0.389-1.408l0.019-0.056  c0.007-0.02,0.004-0.038,0.007-0.058l0.272-1.408c0.001-0.005-0.001-0.01,0-0.015c0-0.002,0.003-0.004,0.003-0.006l0.196-1.435  c0-0.004-0.001-0.007-0.001-0.011c0.001-0.002,0.003-0.003,0.003-0.005l0.113-1.214c0-0.003-0.001-0.006-0.001-0.009  c0-0.004,0.003-0.008,0.003-0.012l0.027-0.676l0.031-0.303c0-0.003-0.001-0.005-0.001-0.007c0.001-0.003,0.002-0.005,0.002-0.007  l0.047-0.703c0-0.001,0-0.001,0-0.002v-0.001l0.002-0.034l1.881-1.342c0.002-0.002,0.003-0.004,0.005-0.006  c0.004-0.003,0.006-0.007,0.011-0.011c0.058-0.047,0.095-0.106,0.116-0.173c0.003-0.008,0.011-0.011,0.013-0.019l0.047-0.174  c0.004-0.014,0.001-0.026,0.003-0.04c0.001-0.005,0.006-0.008,0.007-0.014l0.042-0.356c0-0.004-0.001-0.007-0.001-0.01  c0.001-0.004,0.003-0.007,0.003-0.011l0.033-0.529c0-0.001,0-0.002,0-0.003s0.001-0.003,0.001-0.005l0.028-0.689  c0-0.002-0.001-0.003-0.001-0.005c0-0.001,0.001-0.002,0.001-0.003l0.019-0.849v-0.001v-0.001l0.014-0.951c0-0.001,0-0.001,0-0.002  s0-0.001,0-0.002l0.005-1.008v-0.001V57v-1.021v-0.001v-0.001L80.558,54.992z M74.844,74.312c-0.002,0.005-0.002,0.01-0.004,0.015  c-0.004,0.01-0.005,0.021-0.009,0.031c-0.004,0.013-0.013,0.022-0.016,0.035l-0.067,0.304L74.182,76c0,0.001,0,0.001,0,0.001  l-0.779,1.642l-0.143,0.243c-0.001,0.001,0,0.002-0.001,0.003c-0.001,0.002-0.004,0.004-0.005,0.006l-0.752,1.367l-1.036,1.411  l-1.198,1.135l-1.172,0.855l-1.079,0.72l0,0l-1.032,0.651c-0.001,0.001-0.002,0.002-0.003,0.002l-1.022,0.635l0,0l-1.141,0.668  l-1.284,0.717c-0.002,0.001-0.003,0-0.004,0.001l-1.205,0.661c-0.002,0.001-0.002,0.002-0.004,0.003  c-0.001,0.001-0.001,0.001-0.002,0.001l-0.891,0.511c-0.002,0.001-0.003,0.003-0.004,0.004c-0.003,0.001-0.006,0.001-0.009,0.003  l-0.603,0.377l-0.099,0.034l-0.098-0.056l-0.729-0.657c-0.001-0.001-0.003,0-0.004-0.001c-0.002-0.003-0.003-0.006-0.006-0.008  l-1.003-0.844c-0.001-0.001-0.003-0.001-0.004-0.002s-0.002-0.003-0.003-0.004l-0.971-0.778c-0.001-0.001-0.002,0-0.004-0.001  c-0.001-0.001-0.002-0.003-0.003-0.004l-0.971-0.74c-0.002-0.001-0.004-0.002-0.006-0.003s-0.002-0.003-0.004-0.004l-0.165-0.118  l0.07-0.728l0.199-1.099l0,0l0.197-1.087c0-0.002,0-0.005,0-0.007s0.002-0.002,0.002-0.004l0.048-0.312l0.715,0.61l0,0l1.041,0.924  v0.001l1.182,1.078c0.002,0.001,0.004,0.001,0.006,0.002c0.001,0.001,0.001,0.004,0.002,0.005l0.928,0.802h0.001l0.244,0.226  c0.004,0.004,0.01,0.002,0.014,0.005c0.066,0.058,0.149,0.095,0.24,0.095c0.029,0,0.059-0.003,0.088-0.011l0.554-0.134l0.249-0.051  c0.058-0.012,0.107-0.038,0.15-0.071c0.003-0.002,0.006-0.001,0.008-0.003l1.678-1.336c0.003-0.003,0.005-0.007,0.008-0.009  c0.002-0.002,0.005-0.001,0.007-0.003l1.172-1.031c0.003-0.002,0.002-0.007,0.005-0.009c0.002-0.003,0.006-0.001,0.009-0.004  l1.041-1.018c0.001-0.001,0.001-0.002,0.001-0.003c0.002-0.002,0.004-0.002,0.006-0.004l0.727-0.745  c0.005-0.005,0.003-0.013,0.007-0.018c0.058-0.065,0.092-0.146,0.094-0.235c0.001-0.012-0.002-0.021-0.003-0.033  c-0.001-0.027,0.001-0.055-0.007-0.082l-0.263-0.891c-0.001-0.004-0.004-0.006-0.005-0.01s-0.001-0.008-0.002-0.012l-0.843-2.317  v-0.001l-0.37-1.036c-0.001-0.003-0.003-0.004-0.004-0.007c-0.001-0.001,0-0.003-0.001-0.005l-0.277-0.705l0.041-0.497l0.436-0.557  c0.001-0.001,0.001-0.003,0.002-0.005c0.001-0.001,0.002-0.001,0.003-0.002l0.731-0.975c0.003-0.003,0.003-0.008,0.005-0.011  c0.003-0.004,0.007-0.005,0.01-0.009l0.745-1.145c0.003-0.004,0.003-0.009,0.005-0.013c0.001-0.002,0.004-0.003,0.005-0.005  l0.727-1.256c0.001-0.002,0.001-0.004,0.002-0.006s0.004-0.003,0.005-0.005l0.994-1.856v-0.001c0.001-0.001,0.001-0.001,0.001-0.001  l1.068-2.024c0.001-0.002,0.001-0.004,0.002-0.005c0-0.002,0.001-0.002,0.002-0.003l0.854-1.716l0.183-0.366  c0.003-0.005,0.002-0.011,0.004-0.016c0.003-0.005,0.009-0.007,0.011-0.011c0.004-0.006,0.003-0.013,0.006-0.02  c0.003-0.004,0.008-0.006,0.01-0.011l0.924-2.073l0.99-1.439l0,0l0.933-1.322c0.025-0.035,0.039-0.075,0.051-0.114  c0.001-0.004,0.005-0.006,0.006-0.01l0.003-0.011c0-0.001,0-0.002,0-0.003l0.592-2.353l0.06-0.182l0.342-1.036  c0.001-0.004,0-0.007,0.001-0.011c0.001-0.002,0.003-0.002,0.003-0.004l0.272-0.954l0.51-0.848l0.066-0.067l0.129,0.505  c0.043,0.17,0.196,0.282,0.363,0.282c0.03,0,0.062-0.004,0.093-0.012c0.111-0.028,0.193-0.105,0.24-0.2l0.028,0.343l0.033,1.472  c0,0.001,0.001,0.002,0.001,0.004s-0.001,0.003-0.001,0.005l0.065,1.393c0,0.002,0.001,0.004,0.002,0.007  c0,0.002-0.001,0.003-0.001,0.005l0.103,1.303l0,0v0.001l0.094,1.153c0,0.001,0.001,0.002,0.001,0.003c0,0,0,0.001,0,0.002  l0.094,0.993l0,0l0.064,0.713l-0.02,0.704l-0.007,0.072c0,0.005,0.002,0.008,0.001,0.013c0,0.004-0.003,0.008-0.003,0.013  l-0.038,1.229l0,0l-0.027,0.685l0,0l-0.111,1.189l-0.191,1.404l-0.284,1.463l-0.387,1.4l-0.437,1.278l-0.421,0.991L74.844,74.312z   M54.561,88.336L54.561,88.336l-1.378,0.019l0,0l-1.423,0.01h-3.022l-1.423-0.01l0,0l-1.378-0.019l0,0l-0.74-0.019  c-0.065-0.081-0.161-0.137-0.273-0.141l-1.162-0.042c-0.004,0-0.008,0-0.011,0l-1.011-0.056l-0.901-0.083l-0.604-0.069l0.285-0.242  l0,0l0.947-0.802l0,0l0.923-0.736l1.073-0.691l0.758-0.06c0.001,0,0.002-0.001,0.003-0.001s0.001,0,0.002,0l1.233-0.111l1.396-0.083  c0.001,0,0.002,0,0.003,0l1.547-0.038h1.688L52.64,85.2c0.001,0,0.002,0,0.003,0l1.4,0.083l1.229,0.111c0.001,0,0.001,0,0.002,0  s0.002,0.001,0.003,0.001l0.758,0.06l1.073,0.691l0.923,0.736c0.001,0,0.001,0.001,0.001,0.001l0.951,0.802c0,0,0,0,0.001,0  l0.282,0.241l-0.606,0.069l0,0l-0.899,0.084l-1.014,0.055c-0.003,0-0.007,0-0.011,0l-1.153,0.042  c-0.112,0.004-0.208,0.06-0.273,0.141L54.561,88.336z M26.315,76.001C26.315,76.001,26.315,76.001,26.315,76.001l-0.566-1.304  l-0.067-0.304c-0.003-0.012-0.011-0.021-0.014-0.032c-0.005-0.014-0.007-0.027-0.013-0.04c-0.001-0.003-0.001-0.006-0.002-0.009  l-0.804-1.679l-0.421-0.991l-0.437-1.278l-0.387-1.4l-0.281-1.447l-0.191-1.431v-0.001l-0.114-1.181l-0.023-0.68l-0.042-1.232  c-0.001-0.017-0.009-0.031-0.012-0.047c0.001-0.014,0.008-0.026,0.007-0.041l-0.022-0.712l0.067-0.714l0.094-0.993  c0-0.001,0-0.002,0-0.002c0-0.001,0.001-0.002,0.001-0.003l0.094-1.153c0-0.001,0-0.001,0-0.002l0,0l0.099-1.303  c0-0.002-0.001-0.003-0.001-0.005c0.001-0.002,0.002-0.004,0.002-0.006l0.065-1.393c0-0.002-0.001-0.004-0.001-0.005  c0-0.002,0.001-0.003,0.001-0.004l0.033-1.472l0.029-0.354c0.046,0.101,0.129,0.183,0.244,0.211  c0.031,0.008,0.062,0.012,0.092,0.012c0.168,0,0.321-0.113,0.363-0.283l0.127-0.503l0.065,0.066l0.509,0.848l0.272,0.954  c0,0.002,0.002,0.002,0.003,0.004c0.001,0.004,0,0.007,0.001,0.011l0.342,1.036c0,0.001,0.001,0.001,0.001,0.002  c0.001,0.002,0,0.003,0.001,0.005l0.062,0.181l0.595,2.36c0.001,0.005,0.006,0.007,0.007,0.011c0.012,0.039,0.025,0.078,0.05,0.113  l0.928,1.322l0,0l0.99,1.439l0.924,2.073c0.002,0.005,0.007,0.007,0.01,0.011c0.003,0.007,0.002,0.014,0.006,0.02l0.015,0.026l0,0  l0.183,0.366l0.854,1.716c0.001,0.001,0.002,0.001,0.002,0.003c0.001,0.001,0.001,0.003,0.002,0.005l1.068,2.024  c0,0,0,0,0.001,0.001v0.001l0.994,1.856c0.001,0.002,0.004,0.003,0.005,0.005s0.001,0.004,0.002,0.006l0.727,1.256  c0.001,0.002,0.003,0.003,0.005,0.005c0.002,0.004,0.002,0.009,0.005,0.013l0.745,1.145c0.002,0.004,0.007,0.005,0.01,0.009  c0.002,0.003,0.002,0.008,0.005,0.011l0.731,0.975c0.001,0.001,0.002,0.001,0.003,0.002c0.001,0.002,0.001,0.004,0.002,0.005  l0.436,0.557l0.041,0.497l-0.277,0.705c-0.001,0.002,0,0.004-0.001,0.005c-0.001,0.003-0.003,0.004-0.004,0.007l-0.37,1.036v0.001  l-0.843,2.317c-0.001,0.004,0,0.008-0.002,0.012c-0.001,0.004-0.004,0.006-0.005,0.01l-0.263,0.891  c-0.008,0.027-0.006,0.055-0.007,0.082c-0.001,0.012-0.004,0.021-0.003,0.033c0.002,0.089,0.036,0.17,0.094,0.235  c0.004,0.005,0.002,0.013,0.007,0.018l0.727,0.745c0.002,0.002,0.004,0.002,0.006,0.004c0.001,0.001,0,0.002,0.001,0.003  l1.041,1.018c0.003,0.003,0.007,0.001,0.01,0.004c0.002,0.002,0.001,0.007,0.004,0.009l1.172,1.031  c0.002,0.002,0.005,0.001,0.007,0.003c0.003,0.002,0.005,0.006,0.008,0.009l1.678,1.336c0.002,0.002,0.005,0.001,0.008,0.003  c0.043,0.033,0.093,0.06,0.15,0.071l0.249,0.051l0.554,0.134c0.029,0.008,0.059,0.011,0.088,0.011c0.091,0,0.173-0.036,0.239-0.093  c0.004-0.003,0.009-0.002,0.013-0.005l0.251-0.229h0.001l0.924-0.802c0.002-0.002,0.002-0.004,0.004-0.005  c0.001-0.001,0.001-0.001,0.002-0.001l1.183-1.075l0,0l1.041-0.928l0,0l0.716-0.612l0.047,0.312c0,0.002,0.003,0.003,0.003,0.006  c0.001,0.003-0.001,0.006,0,0.009l0.205,1.082l0,0l0.195,1.1l0.067,0.729l-0.165,0.119c-0.002,0.001-0.002,0.003-0.004,0.004  c-0.001,0.001-0.003,0.001-0.004,0.002l-0.97,0.74c-0.001,0.001-0.002,0.003-0.003,0.003c-0.001,0.001-0.002,0.001-0.003,0.002  l-0.976,0.778c-0.001,0.001-0.002,0.002-0.003,0.003s-0.003,0.002-0.005,0.003l-1.003,0.844c-0.003,0.002-0.004,0.006-0.007,0.008  c-0.001,0.001-0.003,0.001-0.004,0.002l-0.724,0.656l-0.098,0.056l-0.106-0.036l-0.594-0.374c-0.003-0.002-0.006-0.002-0.009-0.003  c-0.002-0.001-0.003-0.004-0.005-0.005l-0.891-0.511c-0.001-0.001-0.003-0.001-0.004-0.001c-0.001-0.001-0.002-0.002-0.003-0.003  l-1.204-0.659c-0.001,0-0.001,0-0.001,0l-1.289-0.722l0,0l-1.144-0.667c0,0-0.001,0-0.002,0l-1.021-0.634c0,0,0-0.001-0.001-0.001  l-1.031-0.656l0,0l-1.079-0.716l-1.175-0.856l-1.19-1.13l-1.042-1.417l-0.754-1.366c-0.001-0.002-0.003-0.003-0.004-0.004  c0-0.001,0-0.003-0.001-0.004l-0.141-0.239l-0.003-0.005L26.315,76.001z M27.511,19.438L27.511,19.438l2.381-1.484l2.789-1.44  l3.203-1.344l3.408-1.048l3.581-0.751l1.81-0.248h0.001l1.855-0.183l1.833-0.102h3.753l1.836,0.102l1.86,0.183l1.803,0.248  l3.581,0.751l3.408,1.048l3.203,1.344l2.789,1.44l2.381,1.484l0,0l1.245,0.848c0.001,0.001,0.001,0.001,0.002,0.002l0.561,0.383  c-0.001,0.001-0.002,0.001-0.002,0.002l-0.094,0.169c0,0.001,0,0.001-0.001,0.002l-0.105,0.189c-0.001,0.001,0,0.002-0.001,0.003  c-0.001,0.002-0.002,0.003-0.003,0.004l-0.121,0.228l0,0l-0.135,0.251l0,0l-0.136,0.249c-0.1,0.182-0.032,0.41,0.149,0.509  c0.058,0.031,0.119,0.046,0.18,0.046c0.133,0,0.261-0.07,0.329-0.195l0.136-0.249v-0.001c0.001-0.001,0.001-0.001,0.001-0.001  l0.136-0.253v-0.001c0.001-0.001,0.001-0.001,0.001-0.001l0.122-0.229l0,0l0.1-0.178l0.42,0.565l0.002,0.002l0.451,1.506  l0.304,1.714l0.124,1.053c0,0.002,0,0.003,0,0.004l0.089,0.797c0,0.001,0.001,0.001,0.001,0.001l0.037,0.374  c0.001,0.008,0.009,0.012,0.01,0.019l0.057,0.477l0,0c0,0.002,0,0.003,0,0.004l0.159,1.224l0,0v0.001l0.365,2.732  c0,0.001,0.001,0.001,0.001,0.001l0.173,1.429l0,0l0.168,1.433c0,0.001,0,0.002,0,0.003l0.154,1.387c0,0,0,0,0,0.001l0.127,1.253  l0.107,1.05c0,0.001,0.001,0.001,0.001,0.003c0,0.001,0,0.002,0,0.003l0.216,1.831l-0.062,0.023c-0.02,0.007-0.033,0.021-0.05,0.031  c-0.024,0.013-0.05,0.023-0.07,0.043c-0.023,0.021-0.039,0.047-0.057,0.072c-0.009,0.015-0.022,0.024-0.03,0.04l-0.141,0.286  c-0.006,0.012-0.005,0.023-0.009,0.035c-0.005,0.012-0.013,0.02-0.016,0.031l-0.141,0.516c-0.001,0.005,0,0.01-0.001,0.015  c-0.002,0.008-0.007,0.013-0.008,0.021l-0.127,0.746c0,0.003,0.001,0.005,0,0.008c0,0.003-0.002,0.004-0.002,0.007l-0.037,0.291  l-0.084,0.656c0,0.003,0.001,0.006,0.001,0.009c0,0.002-0.002,0.004-0.002,0.006l-0.104,1.152c0,0.001,0,0.002,0,0.002  c0,0.002-0.001,0.003-0.001,0.005l-0.094,1.332c0,0.001,0.001,0.002,0,0.003c0,0.002-0.001,0.004-0.001,0.006l-0.07,1.509  c0,0.001,0.001,0.002,0.001,0.004c-0.001,0.001-0.001,0.001-0.001,0.002l-0.052,1.622v0.001v0.001l-0.042,1.683  c0,0.001,0.001,0.002,0.001,0.003s-0.001,0.002-0.001,0.003l-0.019,1.683c0,0.001,0,0.001,0,0.002s0,0.001,0,0.002v0.441  c-0.021-0.004-0.04,0.001-0.06,0.001c-0.01,0-0.018,0-0.027,0.001c-0.094,0.006-0.175,0.048-0.235,0.115  c-0.003,0.003-0.008,0.002-0.011,0.005l-0.178,0.201c-0.004,0.004-0.001,0.01-0.005,0.014c-0.007,0.008-0.017,0.013-0.022,0.021  l-0.194,0.281l-0.279,0.315c0,0,0,0,0,0.001l-0.078,0.086l-0.228,0.23l-0.282-1.556c0-0.001-0.001-0.002-0.001-0.003v-0.001  l-0.174-0.896c0-0.002-0.002-0.003-0.002-0.005c0-0.001,0-0.003,0-0.004l-0.216-0.989c0-0.002-0.001-0.003-0.002-0.004  c0-0.001,0-0.002,0-0.003l-0.112-0.469v-0.001l-0.023-0.099l-0.089-0.369c0,0,0-0.001,0-0.002l-0.211-0.867  c-0.001-0.004-0.004-0.007-0.005-0.011c-0.001-0.003,0-0.007-0.001-0.01l-0.225-0.738c0-0.001,0-0.001,0-0.002l-0.304-1.169  l-0.217-1.131v-0.001l-0.175-1.018c0-0.002,0-0.003,0-0.004l-0.164-1.083l0,0l-0.145-1.581l0.134-0.84c0-0.001,0-0.003,0-0.004  c0-0.002,0.002-0.002,0.002-0.004l0.023-0.173v-0.001l0.131-0.866v-0.001l0,0l0.148-0.996l0.02-0.133v-0.001l0,0  c0-0.001,0-0.002,0-0.003s0.001-0.001,0.001-0.002l0.16-1.186c0-0.001,0-0.002,0-0.003l0,0l0.149-1.177c0-0.002,0-0.003,0-0.004  s0.001-0.002,0.001-0.003l0.127-1.171l0,0l0.126-1.148c0-0.002-0.001-0.004-0.001-0.006c0.001,0,0.001-0.001,0.001-0.001  l0.104-1.135l0.104-1.115c0-0.001,0-0.001,0-0.002s0.001-0.001,0.001-0.002l0.089-1.102V30.55l0,0l0.089-1.12  c0-0.001-0.001-0.003-0.001-0.004c0.001-0.001,0.001-0.001,0.001-0.002l0.07-1.14c0,0,0,0,0-0.001s0.001-0.002,0.001-0.004  l0.061-1.195c0-0.001-0.001-0.002-0.001-0.004c0.001,0,0.001-0.001,0.001-0.002l0.038-1.147l0,0l0.037-1.021  c0-0.001-0.001-0.003-0.001-0.004s0.001-0.002,0.001-0.003l0.023-1.289c0-0.005-0.003-0.009-0.003-0.014  c0-0.004,0.001-0.006,0.001-0.01c0-0.007-0.005-0.011-0.006-0.018c-0.008-0.091-0.046-0.174-0.108-0.234  c-0.002-0.001-0.001-0.004-0.003-0.006c-0.001-0.001-0.003,0-0.004-0.002c-0.001-0.001-0.001-0.002-0.002-0.003l-0.862-0.773  c-0.005-0.004-0.012-0.002-0.017-0.006c-0.013-0.011-0.021-0.024-0.035-0.033l-1.552-0.966c-0.002-0.001-0.005-0.001-0.007-0.003  c-0.002-0.001-0.003-0.003-0.005-0.004l-2.212-1.266c-0.003-0.002-0.006-0.001-0.009-0.003c-0.004-0.002-0.006-0.005-0.009-0.007  l-2.513-1.271c-0.005-0.002-0.01-0.002-0.015-0.004s-0.007-0.006-0.012-0.008l-2.635-1.087c-0.007-0.003-0.014-0.002-0.021-0.004  c-0.007-0.003-0.012-0.008-0.019-0.01l-2.587-0.741c-0.009-0.002-0.017,0-0.024-0.002s-0.014-0.007-0.021-0.008l-1.159-0.181l0,0  l-1.083-0.206c-0.007-0.001-0.013,0.001-0.019,0c-0.021-0.003-0.039-0.001-0.06,0c-0.032,0-0.063,0-0.094,0.009  c-0.008,0.002-0.015,0.007-0.022,0.01c-0.037,0.013-0.072,0.029-0.104,0.054c-0.011,0.008-0.019,0.02-0.028,0.029  c-0.023,0.023-0.047,0.046-0.063,0.075c-0.003,0.005-0.008,0.008-0.011,0.013l-0.286,0.529c0,0.001,0,0.002-0.001,0.003  l-0.393,0.703c-0.001,0.001-0.002,0.002-0.003,0.003l-0.347,0.623c-0.005,0.009-0.005,0.019-0.009,0.027s-0.012,0.015-0.015,0.023  l-0.276,0.736c-0.002,0.005-0.001,0.01-0.002,0.014c-0.002,0.004-0.005,0.007-0.006,0.011l-0.249,0.834  c-0.001,0.003,0,0.006-0.001,0.009s-0.002,0.004-0.003,0.007l-0.229,0.914c-0.001,0.003,0,0.005,0,0.008  c-0.001,0.004-0.004,0.007-0.005,0.011l-0.197,0.984c0,0.002,0,0.003,0,0.005s-0.002,0.003-0.002,0.005l-0.178,1.041  c-0.001,0.003,0.001,0.006,0,0.008c0,0.003-0.002,0.005-0.002,0.007l-0.146,1.102l-0.141,1.073c0,0,0,0,0,0.001l-0.138,0.934  l-0.153,0.628l-0.158,0.244l-0.344,0.007c0.045-0.039,0.075-0.089,0.097-0.144c0.003-0.008,0.011-0.011,0.014-0.019l0.179-0.549  c0.001-0.005,0-0.009,0.002-0.013c0-0.003,0.003-0.004,0.004-0.007l0.169-0.633c0.002-0.008,0-0.015,0.001-0.021  c0.001-0.004,0.005-0.006,0.006-0.01l0.141-0.797c0-0.001,0-0.001,0-0.002l0,0l0.154-0.899l0,0l0.168-0.964l0,0l0.183-0.961l0,0  l0.201-0.934l0,0l0.234-0.919c0.003-0.011,0-0.021,0.002-0.033c0.002-0.016,0.007-0.03,0.007-0.046  c0.001-0.007-0.002-0.012-0.002-0.019c0-0.004-0.001-0.007-0.001-0.01c-0.001-0.025-0.003-0.048-0.009-0.071  s-0.014-0.044-0.023-0.065c-0.01-0.022-0.021-0.043-0.035-0.063c-0.009-0.013-0.018-0.025-0.028-0.037  c-0.002-0.002-0.001-0.006-0.003-0.008l-0.482-0.502c-0.004-0.004-0.011-0.003-0.016-0.007c-0.004-0.004-0.008-0.007-0.013-0.011  c-0.017-0.015-0.032-0.032-0.052-0.044c-0.023-0.014-0.049-0.02-0.075-0.027c-0.019-0.007-0.035-0.019-0.056-0.021l-1.856-0.3  c-0.001,0-0.002,0-0.004,0s-0.004-0.002-0.006-0.002l-1.505-0.201c-0.003,0-0.006,0.001-0.01,0.001  c-0.002,0-0.004-0.002-0.006-0.002l-1.729-0.16c-0.006,0-0.011,0.002-0.016,0.002c-0.007,0-0.012-0.004-0.019-0.004h-3.675  c-0.007,0-0.012,0.003-0.018,0.004c-0.007,0-0.012-0.003-0.018-0.002l-1.721,0.16c-0.002,0-0.004,0.002-0.006,0.002  c-0.003,0-0.006-0.001-0.009-0.001l-1.514,0.201c-0.002,0-0.004,0.002-0.006,0.002s-0.003,0-0.004,0l-1.856,0.3  c-0.021,0.003-0.037,0.015-0.056,0.021c-0.026,0.008-0.053,0.014-0.075,0.027c-0.02,0.012-0.035,0.029-0.052,0.044  c-0.005,0.004-0.009,0.007-0.013,0.011c-0.005,0.004-0.012,0.002-0.016,0.007l-0.482,0.502c-0.002,0.002-0.001,0.006-0.003,0.008  c-0.011,0.012-0.02,0.024-0.028,0.037c-0.015,0.021-0.025,0.041-0.035,0.063c-0.01,0.021-0.018,0.043-0.023,0.065  c-0.006,0.023-0.008,0.046-0.009,0.07c0,0.004-0.001,0.007-0.001,0.011c0,0.007-0.003,0.012-0.002,0.019  c0,0.016,0.005,0.03,0.007,0.046c0.002,0.012-0.001,0.022,0.002,0.033l0.234,0.919l0,0l0.201,0.934l0,0l0.183,0.961l0,0l0.168,0.964  l0,0l0.154,0.899l0,0c0,0.001,0,0.001,0,0.002l0.141,0.797c0.001,0.004,0.005,0.006,0.006,0.01c0.001,0.007-0.001,0.014,0.001,0.021  l0.169,0.633c0.001,0.003,0.004,0.005,0.005,0.008c0.002,0.005,0,0.009,0.002,0.014l0.183,0.549c0.002,0.007,0.009,0.01,0.012,0.016  c0.021,0.056,0.052,0.105,0.097,0.145l-0.345-0.007l-0.159-0.244l-0.151-0.633l-0.137-0.929c0-0.001,0-0.001,0-0.001l-0.141-1.073  l0,0c0-0.001,0-0.001,0-0.002l-0.149-1.102c0-0.002-0.002-0.004-0.002-0.006s0-0.003,0-0.005l-0.174-1.041  c0-0.003-0.002-0.005-0.003-0.008c0-0.002,0-0.004,0-0.006l-0.201-0.984c0-0.002-0.002-0.004-0.003-0.006  c0-0.003,0.001-0.006,0-0.009l-0.226-0.914c-0.001-0.004-0.004-0.007-0.005-0.011c-0.001-0.003,0-0.005-0.001-0.008l-0.253-0.834  c-0.001-0.003-0.003-0.005-0.004-0.008c-0.002-0.006-0.001-0.011-0.003-0.016l-0.276-0.736c-0.003-0.009-0.011-0.015-0.015-0.022  c-0.004-0.009-0.003-0.018-0.008-0.026l-0.342-0.623c-0.001-0.001-0.002-0.002-0.003-0.003c0-0.001,0-0.001,0-0.001l-0.398-0.705  c-0.001,0-0.001-0.001-0.001-0.002l-0.286-0.529c-0.003-0.005-0.007-0.008-0.01-0.012c-0.018-0.03-0.041-0.055-0.065-0.078  c-0.01-0.009-0.017-0.02-0.026-0.027c-0.032-0.024-0.067-0.041-0.105-0.054c-0.007-0.003-0.014-0.007-0.021-0.009  c-0.03-0.009-0.062-0.01-0.096-0.01c-0.02,0-0.038-0.003-0.058,0c-0.007,0.001-0.013-0.001-0.02,0l-1.083,0.206l0,0l-1.159,0.181  c-0.008,0.001-0.014,0.006-0.021,0.008s-0.016,0-0.024,0.002l-2.587,0.741c-0.007,0.002-0.012,0.007-0.019,0.01  c-0.007,0.002-0.014,0.001-0.021,0.004l-2.635,1.087c-0.005,0.002-0.007,0.006-0.012,0.008s-0.01,0.002-0.015,0.004l-2.513,1.271  c-0.003,0.002-0.005,0.005-0.009,0.007c-0.003,0.002-0.006,0.001-0.009,0.003l-2.212,1.266c-0.002,0.001-0.003,0.003-0.005,0.004  c-0.002,0.002-0.005,0.002-0.007,0.003l-1.313,0.817c-0.005-0.076-0.025-0.153-0.078-0.217l-0.34-0.415l-0.118-0.216l0,0  l-0.131-0.243v-0.001l-0.117-0.229c-0.001-0.002-0.003-0.004-0.005-0.006c-0.001-0.002-0.001-0.005-0.002-0.007l-0.108-0.193  c-0.001-0.001-0.001-0.001-0.002-0.002l-0.091-0.164c-0.001-0.001-0.002-0.002-0.003-0.004l0.558-0.381  c0.001-0.001,0.001-0.001,0.002-0.002L27.511,19.438z M69.777,66.445l-1.067,2.021l0,0l-0.994,1.856c0,0.001,0,0.002-0.001,0.002  l-0.708,1.225l-0.001,0.001l-0.745,1.145l-0.513,0.683l-0.034-0.624l0.061-0.626l0.108-0.64l0.173-0.642l0.249-0.667l0.313-0.661  l0.4-0.694l0.472-0.678l0,0l0.57-0.737l0.6-0.72l0.721-0.771l0,0l0.714-0.747c0.008-0.008,0.004-0.02,0.011-0.028  c0.014-0.011,0.031-0.017,0.044-0.03l0.333-0.356l0,0l0.287-0.306l-0.143,0.286L69.777,66.445z M66.449,79.48l0.196,0.665  l-0.57,0.585l-1.03,1.007l-1.164,1.024l-1.545,1.23l-1.139-1.001c0,0,0,0-0.001,0l-2.264-2.04c-0.002-0.002-0.005-0.001-0.008-0.003  c-0.004-0.004-0.006-0.009-0.011-0.013l-0.957-0.755c-0.007-0.005-0.015-0.007-0.021-0.011c-0.008-0.006-0.012-0.013-0.02-0.018  l-0.094-0.056l0.091-0.228c0.006-0.015,0.004-0.029,0.008-0.044c0.002-0.007,0.009-0.01,0.011-0.017l0.259-1.194l0.447-1.501  c0-0.001,0-0.002,0-0.004c0.001-0.001,0.002-0.001,0.002-0.002l0.422-1.495c0-0.001,0-0.002,0-0.003c0,0,0.001,0,0.001-0.001  l0.262-0.973l0.284,0.6c0,0.001,0.001,0.001,0.002,0.002c0.001,0.003,0.001,0.005,0.002,0.008l0.511,1.008  c0.001,0.002,0.004,0.003,0.005,0.005s0.001,0.005,0.002,0.007l0.567,1.026c0.002,0.004,0.006,0.005,0.009,0.009  c0.003,0.006,0.003,0.012,0.007,0.018l0.355,0.534c0,0.001,0.001,0.001,0.002,0.002l0.338,0.526c0.003,0.004,0.007,0.005,0.01,0.009  c0.003,0.005,0.004,0.01,0.007,0.015c0.021,0.028,0.052,0.045,0.079,0.065c0.018,0.014,0.031,0.031,0.05,0.041  c0.054,0.027,0.111,0.043,0.17,0.043c0.069,0,0.14-0.02,0.202-0.06c0.006-0.004,0.009-0.01,0.014-0.014  c0.003-0.002,0.007-0.001,0.01-0.003l0.457-0.345c0-0.001,0.001,0,0.002-0.001l0.933-0.703c0.004-0.003,0.006-0.008,0.011-0.012  c0.002-0.002,0.006-0.001,0.008-0.003l0.877-0.75c0.001-0.001,0.002-0.003,0.003-0.003c0-0.001,0.001-0.001,0.001-0.001l0.755-0.665  c0.001-0.001,0.001-0.003,0.002-0.005c0.002-0.001,0.004-0.001,0.006-0.002l0.131-0.122l0.104,0.263v0.001l0.37,1.036  c0,0.001,0.001,0.001,0.001,0.001v0.001L66.449,79.48z M36.616,82.762l-1.164-1.024l-1.03-1.007l-0.57-0.585l0.196-0.665  l0.841-2.313v-0.001c0,0,0.001,0,0.001-0.001l0.37-1.036v-0.001l0.104-0.263l0.131,0.122c0.002,0.001,0.004,0.001,0.006,0.002  c0.001,0.002,0.001,0.004,0.002,0.005l0.755,0.665c0.001,0.001,0.002,0,0.003,0.001s0.001,0.002,0.002,0.003l0.881,0.75  c0.002,0.002,0.005,0.001,0.007,0.003c0.004,0.003,0.006,0.008,0.011,0.012l0.933,0.703h0.001l0.452,0.345  c0.003,0.002,0.006,0.001,0.009,0.003c0.005,0.004,0.008,0.01,0.013,0.013c0.063,0.042,0.135,0.062,0.206,0.062  c0.059,0,0.116-0.016,0.169-0.042c0.019-0.009,0.031-0.026,0.048-0.039c0.028-0.021,0.059-0.037,0.081-0.066  c0.003-0.004,0.004-0.009,0.007-0.013c0.002-0.004,0.006-0.005,0.009-0.009l0.352-0.534c0-0.001,0-0.001,0.001-0.002l0,0  l0.347-0.534c0.003-0.005,0.003-0.01,0.006-0.015c0.002-0.003,0.006-0.004,0.008-0.008l0.567-1.026  c0.001-0.002,0.001-0.005,0.002-0.007s0.004-0.003,0.005-0.005l0.511-1.008c0.001-0.003,0.001-0.005,0.002-0.008  c0.001-0.001,0.002-0.001,0.002-0.002l0.284-0.6l0.262,0.973c0,0.001,0.001,0.001,0.001,0.001c0,0.001,0,0.002,0,0.003l0.422,1.495  c0,0.002,0.002,0.002,0.003,0.004c0,0.001,0,0.003,0,0.004l0.452,1.488l0.252,1.203c0.002,0.008,0.01,0.012,0.012,0.019  c0.004,0.016,0.003,0.031,0.009,0.046l0.093,0.227l-0.093,0.055c-0.007,0.004-0.011,0.012-0.018,0.016  c-0.007,0.005-0.016,0.006-0.022,0.012l-0.961,0.755c-0.005,0.004-0.007,0.01-0.012,0.014c-0.002,0.002-0.006,0.001-0.008,0.003  l-2.266,2.041l0,0l-1.136,1.001L36.616,82.762z M33.491,71.551L33.491,71.551l-0.709-1.226c-0.001,0-0.001-0.001-0.001-0.002  l-0.994-1.856l0,0l-1.067-2.021l-0.85-1.709l-0.145-0.29l0.292,0.308l0,0l0.328,0.356c0.002,0.003,0.006,0.003,0.009,0.006  c0.001,0.002,0,0.004,0.002,0.006l0.056,0.056h0.001l0.703,0.74l0,0l0.721,0.771l0.604,0.724l0.566,0.728l0.473,0.685l0.399,0.693  l0.316,0.669l0.25,0.658l0.168,0.636l0.109,0.646l0.061,0.626l-0.034,0.624l-0.513-0.683L33.491,71.551z M23.133,31.685l0.361-2.732  l0.159-1.224c0-0.001,0-0.002,0-0.004l0,0l0.057-0.477c0.001-0.007,0.009-0.011,0.01-0.019l0.037-0.374c0,0,0.001,0,0.001-0.001  l0.089-0.797c0-0.001,0-0.002,0-0.003l0.129-1.059l0.299-1.709l0.451-1.506l0.424-0.569l0.103,0.181l0.114,0.224  c0.001,0.001,0.002,0.002,0.003,0.003c0,0.001,0,0.003,0.001,0.004l0.136,0.253c0,0,0,0,0.001,0.001v0.001l0.136,0.249  c0.004,0.008,0.013,0.011,0.018,0.019c0.009,0.013,0.012,0.027,0.021,0.04l0.361,0.44c0.045,0.055,0.104,0.088,0.166,0.109  l-0.657,0.593c-0.001,0.001-0.001,0.002-0.001,0.003c-0.001,0.001-0.003,0-0.004,0.001c-0.002,0.002-0.001,0.004-0.003,0.006  c-0.062,0.061-0.1,0.143-0.108,0.234c-0.001,0.007-0.006,0.012-0.006,0.019c0,0.003,0.001,0.005,0,0.009  c0,0.004-0.002,0.008-0.002,0.013l0.02,1.289c0,0.001,0.001,0.002,0.001,0.003c0,0.002-0.001,0.003-0.001,0.005l0.037,1.021  l0.042,1.148c0,0.001,0,0.001,0,0.002c0,0,0,0.001,0,0.002l0.057,1.195c0,0.002,0.001,0.004,0.001,0.006c0,0.001,0,0.002,0,0.003  l0.079,1.14l0.08,1.12l0.001,0.001c0,0.002-0.001,0.003-0.001,0.005l0.094,1.102l0,0v0.001l0.099,1.115  c0,0.001,0.001,0.001,0.001,0.002s0,0.001,0,0.002l0.112,1.135l0,0c0,0.001,0,0.001,0,0.001l0.117,1.148l0,0  c0,0.001,0,0.001,0,0.002l0.127,1.172c0,0.001,0.001,0.002,0.001,0.003c0.001,0.001,0,0.002,0,0.004l0.149,1.177  c0,0.001,0.001,0.001,0.001,0.002s0,0.002,0,0.003l0.164,1.186l0,0c0,0.002,0,0.003,0,0.004l0.328,2.175l0,0v0.001l0.129,0.843  l-0.147,1.58l0,0l-0.164,1.083c0,0.001,0,0.002,0,0.004l-0.175,1.018v0.001l-0.217,1.131l-0.304,1.169c0,0.001,0,0.001,0,0.002  l-0.225,0.738c-0.001,0.004,0,0.008-0.001,0.012c-0.001,0.003-0.004,0.006-0.005,0.01l-0.323,1.336v0.001  c0,0.001-0.001,0.001-0.001,0.002l-0.108,0.469c0,0.001,0,0.001,0,0.002s-0.001,0.001-0.001,0.002l-0.22,0.989  c0,0.002,0,0.003,0,0.005c-0.001,0.002-0.002,0.003-0.002,0.005l-0.174,0.896v0.001c0,0.001-0.001,0.002-0.001,0.003l-0.282,1.556  l-0.228-0.23l-0.075-0.084c-0.001,0-0.001-0.001-0.001-0.001l-0.278-0.318l-0.199-0.283c-0.006-0.008-0.015-0.013-0.021-0.02  c-0.003-0.004-0.001-0.009-0.004-0.013l-0.178-0.201c-0.003-0.003-0.007-0.002-0.01-0.005c-0.062-0.069-0.144-0.111-0.239-0.116  c-0.007-0.001-0.013,0-0.021-0.001c-0.021,0.001-0.042-0.004-0.063,0v-0.441c0-0.001,0-0.001,0-0.002s0-0.001,0-0.002l-0.019-1.683  c0-0.001-0.001-0.002-0.001-0.003s0.001-0.002,0.001-0.003l-0.042-1.683v-0.001v-0.001l-0.052-1.622  c0-0.001-0.001-0.001-0.001-0.002c0-0.002,0.001-0.003,0.001-0.004l-0.07-1.509c0-0.002-0.001-0.004-0.001-0.006  c0-0.001,0-0.002,0-0.003l-0.094-1.332c0-0.002-0.001-0.003-0.001-0.005c0,0,0-0.001,0-0.002l-0.104-1.152  c0-0.002-0.001-0.004-0.002-0.006c0-0.003,0.001-0.006,0.001-0.009l-0.083-0.649c0-0.001,0-0.001,0-0.002l-0.033-0.291  c-0.001-0.005-0.003-0.008-0.004-0.013c-0.001-0.003,0.001-0.006,0-0.009l-0.131-0.745c-0.001-0.006-0.005-0.011-0.007-0.017  c-0.001-0.006,0.001-0.012-0.001-0.018l-0.141-0.516c-0.003-0.012-0.011-0.02-0.015-0.03c-0.005-0.012-0.004-0.024-0.01-0.036  l-0.141-0.286c-0.008-0.016-0.021-0.025-0.03-0.039c-0.018-0.026-0.033-0.053-0.057-0.073c-0.02-0.018-0.043-0.027-0.064-0.04  c-0.019-0.011-0.034-0.026-0.056-0.034l-0.062-0.023l0.216-1.831c0-0.001,0-0.002,0-0.003c0-0.002,0.001-0.002,0.001-0.003  l0.107-1.05l0.127-1.253c0-0.001,0-0.001,0-0.001l0.154-1.387c0-0.001,0-0.002,0-0.003l0.168-1.431c0-0.001,0-0.001,0-0.001  L23.133,31.685L23.133,31.685z M28.408,22.188l2.189-1.253l2.5-1.264l2.598-1.072l2.547-0.729l1.146-0.179  c0.001,0,0.002-0.001,0.003-0.001c0.003-0.001,0.007,0,0.01-0.001l0.812-0.154l0.156,0.288c0.001,0.001,0.002,0.002,0.003,0.003  s0,0.002,0.001,0.003l0.399,0.706c0.001,0.001,0,0.002,0.001,0.003l0.329,0.6l0.267,0.711c0,0,0,0,0,0.001l0.24,0.79v0.001  l0.226,0.914l0,0l0.195,0.955c0,0.001,0,0.001,0,0.001l0.172,1.029c0,0.001,0,0.001,0,0.001l0.149,1.102c0,0,0,0,0,0.001l0.141,1.07  c0,0.001,0.001,0.001,0.001,0.002c0,0.002,0,0.003,0,0.004l0.141,0.956c0.001,0.004,0.004,0.006,0.005,0.009  c0.002,0.008-0.001,0.016,0.001,0.023l0.169,0.708c0.002,0.007,0.009,0.01,0.011,0.017c0.01,0.035,0.02,0.07,0.041,0.103  l0.305,0.464c0.005,0.008,0.014,0.011,0.02,0.018c0.026,0.035,0.059,0.063,0.096,0.087c0.012,0.008,0.021,0.018,0.033,0.023  c0.047,0.023,0.1,0.04,0.156,0.041l1.481,0.033c0.002,0,0.004,0,0.006,0l1.139,0.009l1.087,0.01l0,0l2.058,0.047  c0.003,0,0.006,0,0.009,0h1.997c0.003,0,0.006,0,0.009,0l2.058-0.047l0,0l1.091-0.01l1.14-0.009c0.002,0,0.004,0,0.006,0l1.48-0.033  c0.058-0.001,0.109-0.018,0.157-0.042c0.012-0.006,0.021-0.015,0.032-0.022c0.038-0.024,0.07-0.053,0.097-0.089  c0.006-0.007,0.015-0.01,0.02-0.018l0.301-0.464c0.021-0.031,0.029-0.065,0.039-0.099c0.002-0.007,0.009-0.01,0.011-0.017  l0.173-0.708c0.002-0.008,0-0.016,0.001-0.023c0.001-0.004,0.005-0.007,0.006-0.011l0.141-0.956c0-0.001,0-0.002,0-0.004  c0-0.001,0.001-0.001,0.001-0.002l0.141-1.073l0.144-1.087l0.178-1.041l0.195-0.975v-0.001l0.221-0.879l0,0l0.244-0.816l0.264-0.703  l0.333-0.599c0.001-0.001,0.001-0.003,0.001-0.004l0.396-0.709v-0.001c0.001-0.001,0.002-0.002,0.003-0.003l0.156-0.288l0.812,0.154  c0.003,0.001,0.007,0,0.01,0.001c0.001,0,0.002,0.001,0.003,0.001l1.146,0.179l2.548,0.729l2.598,1.072l2.499,1.264l2.19,1.253  l1.522,0.947l0.552,0.495l-0.072,0.077c-0.004,0.004-0.002,0.01-0.005,0.014c-0.026,0.03-0.052,0.062-0.067,0.101l-0.149,0.365  c-0.001,0.003-0.001,0.007-0.002,0.01c-0.002,0.004-0.005,0.007-0.007,0.012l-0.141,0.417l-0.202,0.449  c-0.006,0.014-0.005,0.027-0.009,0.041c-0.006,0.016-0.016,0.028-0.019,0.045l-0.112,0.609c0,0.002,0,0.003,0,0.005  c0,0.001-0.001,0.002-0.001,0.003l-0.112,0.688c0,0.002,0.001,0.004,0,0.006c0,0.003-0.002,0.005-0.002,0.007l-0.099,0.76  c0,0.001,0,0.002,0,0.003s0,0.001,0,0.001l-0.099,0.829l-0.104,0.875c0,0.001,0,0.001,0,0.001l-0.111,0.93  c0,0.001-0.001,0.002-0.001,0.003l-0.131,0.971c0,0.001,0,0.002,0,0.003l-0.144,1.01c0,0-0.001,0.001-0.001,0.002l-0.163,1.062l0,0  l-0.188,1.098l0,0l-0.21,1.139l-0.221,1.186v0.001l0,0l-0.225,1.233c0,0.001,0,0.003,0,0.004s-0.001,0.002-0.001,0.003l-0.211,1.284  c0,0.002,0.001,0.004,0,0.006c0,0.002-0.001,0.003-0.001,0.004l-0.183,1.336c-0.001,0.005,0.001,0.01,0.001,0.015  c-0.001,0.007-0.005,0.013-0.005,0.02l-0.057,1.275l-0.288,2.662l-1.071,0.276h-0.001l-1.274,0.333  c-0.001,0-0.002,0.001-0.003,0.001l-2.466,0.562c-0.001,0-0.001,0-0.002,0l-2.78,0.573l0,0l-2.958,0.497  c-0.001,0-0.002,0.001-0.003,0.001l-2.959,0.405l-2.812,0.251l-2.603,0.14h-3.286l-2.602-0.14l-2.81-0.251l-2.963-0.405  c-0.001,0-0.002-0.001-0.003-0.001l-2.958-0.497l0,0l-2.78-0.573c-0.001,0-0.001,0-0.002,0l-2.466-0.562  c-0.001,0-0.002-0.001-0.003-0.001l-1.274-0.333h-0.001l-1.071-0.276l-0.288-2.662l-0.057-1.275c0-0.007-0.004-0.013-0.005-0.02  c0-0.005,0.002-0.01,0.001-0.015l-0.183-1.336c0-0.001-0.001-0.002-0.001-0.004c0-0.001,0-0.003,0-0.004l-0.202-1.284  c0-0.001-0.001-0.002-0.001-0.003c0-0.003,0-0.005,0-0.007l-0.229-1.233c0-0.001-0.001-0.002-0.001-0.004l-0.224-1.178  c0-0.001,0-0.003,0-0.004l-0.21-1.139l0,0l-0.188-1.098l0,0l-0.163-1.062c0-0.001-0.001-0.002-0.001-0.002l-0.144-1.01  c0-0.001,0-0.002,0-0.003l-0.131-0.971c0-0.001-0.001-0.002-0.001-0.003l-0.107-0.928c0,0,0,0,0-0.001c0,0,0-0.001,0-0.002  l-0.107-0.877v-0.001l-0.099-0.826c0,0,0,0,0-0.001s0-0.002,0-0.003l-0.099-0.76c0-0.002-0.002-0.004-0.002-0.006  c-0.001-0.003,0-0.005,0-0.007l-0.112-0.688c0-0.001-0.001-0.002-0.001-0.003c0-0.002,0-0.003,0-0.005l-0.112-0.609  c-0.003-0.018-0.013-0.031-0.019-0.047c-0.004-0.013-0.003-0.026-0.009-0.039l-0.202-0.449l-0.141-0.417  c-0.001-0.003-0.004-0.006-0.005-0.009s-0.001-0.007-0.002-0.01l-0.146-0.365c-0.017-0.042-0.043-0.076-0.07-0.108  c-0.003-0.002-0.002-0.006-0.004-0.009l-0.072-0.078l0.549-0.494L28.408,22.188z M54.062,26.859c-0.001,0-0.001,0-0.002,0  s-0.001,0-0.002,0l-0.976,0.005c-0.002,0-0.004,0-0.006,0l-0.946,0.019l0,0l-0.94,0.014h-1.882l-0.94-0.014l0,0l-0.942-0.019  c-0.002,0-0.004,0-0.006,0l-0.979-0.005c-0.001,0-0.001,0-0.002,0s-0.001,0-0.002,0l-0.966,0.005h-0.621l-0.167-0.242l-0.064-0.644  c0-0.002-0.001-0.003-0.001-0.005c-0.001-0.002,0-0.004,0-0.006l-0.104-0.797c0-0.001-0.001-0.002-0.001-0.003  c0-0.002,0-0.003,0-0.004l-0.117-0.802l-0.093-0.742c0-0.001-0.001-0.003-0.001-0.004c-0.001-0.002,0-0.004,0-0.006l-0.107-0.698  c-0.001-0.006-0.005-0.01-0.006-0.015c0-0.004,0.001-0.008,0-0.012l-0.146-0.638c-0.001-0.004-0.004-0.006-0.005-0.01  c-0.001-0.005,0.001-0.011-0.001-0.016l-0.019-0.062l1.369,0.034c0.002,0,0.003,0,0.004,0l1.52,0.023c0.002,0,0.004,0,0.006,0  c0.003,0,0.007,0,0.011,0l1.654-0.047h3.335l1.654,0.047c0.004,0,0.008,0,0.011,0c0.002,0,0.004,0,0.006,0l1.523-0.023  c0.001,0,0.002,0,0.004,0l1.37-0.034l-0.019,0.064c-0.001,0.003,0,0.006-0.001,0.009c-0.001,0.004-0.004,0.007-0.005,0.011  l-0.15,0.638c-0.001,0.005,0.001,0.01-0.001,0.015c-0.001,0.006-0.004,0.01-0.005,0.015l-0.107,0.698c0,0.002,0.001,0.004,0,0.006  c0,0.001-0.001,0.003-0.001,0.004l-0.093,0.742l-0.117,0.802c0,0.001,0,0.002,0,0.003c0,0.002-0.001,0.003-0.001,0.004l-0.104,0.797  c0,0.003,0.001,0.005,0.001,0.008c-0.001,0.002-0.002,0.003-0.002,0.005l-0.062,0.643l-0.166,0.241h-0.616L54.062,26.859z   M63.749,76.092C63.749,76.093,63.748,76.093,63.749,76.092l-0.871,0.745l-0.921,0.694c-0.001,0.001-0.002,0.002-0.003,0.003  l-0.134,0.101l-0.124-0.193l-0.001-0.001c-0.001-0.002-0.001-0.003-0.002-0.005l-0.35-0.524l-0.551-0.997v-0.001l-0.511-1.008  c0-0.001-0.001-0.001-0.002-0.002l-0.449-0.949c-0.002-0.005-0.007-0.008-0.01-0.013c-0.012-0.022-0.029-0.041-0.046-0.062  c-0.016-0.019-0.029-0.039-0.049-0.054c-0.004-0.004-0.006-0.01-0.011-0.013l-0.338-0.251c-0.001-0.001-0.003-0.002-0.004-0.003  l-0.005-0.004c-0.004-0.003-0.008-0.003-0.011-0.005c-0.019-0.013-0.039-0.02-0.06-0.029c-0.02-0.009-0.035-0.021-0.056-0.027  c-0.002-0.001-0.004,0-0.006,0c-0.006-0.002-0.012-0.001-0.017-0.003c-0.005,0-0.008-0.003-0.012-0.004l-1.041-0.179  c-0.004-0.001-0.007,0.001-0.01,0c-0.004,0-0.006-0.003-0.01-0.003l-0.006-0.001h-0.001l-0.01-0.001l-1.193-0.141l-0.054-0.007  c-0.002,0-0.003,0.001-0.005,0h-0.001h-0.001l-0.642-0.075c-0.004-0.001-0.008,0.001-0.013,0.001c-0.004,0-0.007-0.003-0.011-0.003  l-2.4-0.131c-0.002,0-0.004,0.001-0.006,0.001c-0.002-0.001-0.004-0.002-0.007-0.002l-2.597-0.057c-0.002,0-0.005,0-0.008,0h-1.889  c-0.003,0-0.006,0-0.008,0l-2.598,0.057c-0.002,0-0.005,0.001-0.007,0.002c-0.002,0-0.004-0.001-0.006-0.001l-2.404,0.131  c-0.004,0-0.007,0.003-0.011,0.003c-0.005,0-0.008-0.002-0.013-0.001l-1.908,0.225c-0.003,0-0.005,0.002-0.008,0.003  c-0.004,0-0.008-0.002-0.012-0.001l-1.045,0.179c-0.006,0.001-0.01,0.005-0.016,0.006c-0.004,0.001-0.008,0.001-0.011,0.002  c-0.003,0-0.005-0.001-0.008,0c-0.019,0.005-0.033,0.018-0.05,0.025c-0.022,0.01-0.046,0.018-0.066,0.031  c-0.003,0.002-0.007,0.003-0.01,0.005l-0.005,0.004c-0.001,0.001-0.003,0.002-0.004,0.003l-0.338,0.251  c-0.005,0.004-0.008,0.01-0.012,0.014c-0.018,0.014-0.031,0.032-0.046,0.05c-0.018,0.021-0.036,0.041-0.048,0.064  c-0.003,0.005-0.008,0.008-0.01,0.013l-0.449,0.949c-0.001,0.001-0.002,0.001-0.002,0.002l-0.511,1.008v0.001l-0.556,1.004  l-0.336,0.519c0,0.001-0.001,0.001-0.001,0.001l-0.131,0.198l-0.135-0.103l0,0c-0.001-0.001-0.001-0.002-0.002-0.002l-0.93-0.701  l-0.861-0.733l0,0l-0.747-0.658l0,0l-0.428-0.398l-0.045-0.549c0,0,0,0,0-0.001c0,0,0,0,0-0.001l-0.059-0.673l0.059-1.051  c0.001-0.01-0.004-0.018-0.004-0.027s0.004-0.02,0.003-0.029l-0.065-0.675c0-0.004-0.003-0.008-0.004-0.012  c0-0.005,0.002-0.01,0.001-0.015l-0.112-0.661c-0.001-0.007-0.006-0.011-0.007-0.018c-0.001-0.005,0-0.011-0.001-0.016l-0.179-0.68  c-0.002-0.007-0.007-0.011-0.009-0.018s0-0.013-0.003-0.02l-0.262-0.688c-0.002-0.005-0.006-0.008-0.008-0.013  s-0.002-0.01-0.004-0.015l-0.333-0.703c-0.002-0.004-0.006-0.007-0.008-0.011c-0.003-0.006-0.003-0.012-0.006-0.017l-0.408-0.708  c-0.003-0.005-0.008-0.008-0.011-0.013c-0.003-0.004-0.003-0.009-0.006-0.013l-0.492-0.713c-0.002-0.003-0.006-0.004-0.008-0.007  c-0.002-0.004-0.003-0.008-0.005-0.011l-0.576-0.74c-0.001-0.002-0.003-0.002-0.005-0.004c-0.001-0.002-0.001-0.004-0.003-0.006  L32.405,66.2c-0.003-0.004-0.008-0.005-0.011-0.009c-0.002-0.002-0.001-0.005-0.003-0.007l-0.727-0.778  c-0.001-0.001-0.002,0-0.002-0.001c-0.001-0.001-0.001-0.001-0.001-0.002l-0.713-0.75c-0.008-0.008-0.02-0.005-0.027-0.013  c-0.008-0.009-0.013-0.02-0.02-0.028c-0.003-0.003-0.002-0.007-0.004-0.01l-0.011-0.012l0,0l0,0l-0.317-0.345  c-0.001-0.001-0.003-0.001-0.004-0.002s0-0.002-0.001-0.003l-0.45-0.474l0,0l-0.728-0.841l-0.689-0.88l-0.4-0.593  c-0.001-0.001-0.002-0.001-0.002-0.002c-0.001-0.001-0.001-0.003-0.002-0.004l-0.237-0.337l-1.069-1.994l-0.451-1.095l-0.332-0.935  v-0.001l-0.065-0.188c0,0,0-0.001-0.001-0.001l-0.3-0.909c0.018,0.065,0.031,0.135,0.086,0.185l0.361,0.333l0,0l0.401,0.373  c0.001,0.001,0.001,0.001,0.001,0.002l0.436,0.403l0,0l0.452,0.428l0,0l0.472,0.453l1.063,1.021l0.614,0.591  c0.001,0.001,0.002,0,0.003,0.001s0,0.002,0.001,0.003l0.703,0.656c0.001,0.001,0.001,0,0.002,0.001l0.752,0.715  c0.001,0,0.001,0.001,0.001,0.001l0.793,0.77l0.787,0.811l0,0l0.787,0.844l0.001,0.001l0.75,0.865l0.726,0.873  c0.001,0.001,0.001,0.001,0.001,0.002l0.703,0.909c0,0.001,0.001,0.001,0.002,0.002l0.661,0.882l0,0l0.623,0.902l0.572,0.898  l0.529,0.9l0.477,0.904l0.414,0.847c0,0.001,0.001,0.001,0.001,0.001l0.333,0.729c0.062,0.139,0.198,0.22,0.341,0.22  c0.053,0,0.105-0.011,0.155-0.034c0.188-0.086,0.271-0.309,0.186-0.496l-0.338-0.74c-0.001-0.001-0.002-0.002-0.002-0.003  c-0.001-0.002-0.001-0.005-0.002-0.007l-0.417-0.854c-0.001-0.002-0.002-0.003-0.003-0.004c-0.001-0.002-0.001-0.004-0.002-0.006  l-0.482-0.914c-0.002-0.003-0.004-0.005-0.006-0.007c-0.002-0.003-0.001-0.006-0.003-0.009l-0.534-0.909  c-0.001-0.002-0.004-0.003-0.005-0.005s-0.001-0.004-0.002-0.006l-0.582-0.914c-0.001-0.002-0.004-0.003-0.005-0.005  c-0.002-0.002-0.002-0.005-0.003-0.007l-0.628-0.909c-0.002-0.002-0.004-0.003-0.006-0.006c-0.001-0.002-0.002-0.004-0.003-0.006  l-0.675-0.9c0,0-0.001,0-0.001-0.001c-0.001-0.001-0.001-0.003-0.002-0.004l-0.703-0.909c-0.002-0.002-0.005-0.003-0.007-0.006  c-0.001-0.001-0.001-0.003-0.002-0.004l-0.74-0.891c-0.001-0.001-0.002-0.001-0.003-0.002c-0.001-0.002-0.001-0.003-0.002-0.004  l-0.76-0.877c-0.002-0.002-0.004-0.001-0.006-0.003s-0.001-0.006-0.003-0.008l-0.787-0.844c-0.001-0.001-0.003-0.001-0.004-0.002  s-0.001-0.003-0.002-0.004l-0.797-0.82c-0.001-0.002-0.004-0.001-0.006-0.002c-0.001-0.002,0-0.004-0.002-0.006l-0.797-0.773  c-0.001-0.001-0.002,0-0.003-0.001v-0.001l-0.76-0.722h-0.001c-0.001-0.001,0-0.002-0.001-0.003l-0.703-0.656l0,0l-0.61-0.587  l-1.063-1.021l-0.474-0.455h-0.001c-0.001-0.001-0.001-0.002-0.001-0.002l-0.455-0.431c-0.001-0.001-0.001,0-0.002-0.001  c-0.001,0,0-0.001-0.001-0.002l-0.436-0.403c0,0-0.001,0-0.002-0.001l-0.401-0.373c0,0,0,0-0.001,0v-0.001l-0.361-0.333  c-0.152-0.14-0.39-0.131-0.529,0.021c-0.066,0.072-0.094,0.164-0.094,0.255l-0.01-0.029c0,0,0-0.001-0.001-0.001l-0.271-0.948  l-0.022-0.389c0.021,0.022,0.042,0.043,0.068,0.06c0.005,0.004,0.009,0.01,0.015,0.013c0.001,0.001,0.002,0.002,0.003,0.003  l0.065,0.037c0.004,0.002,0.008,0.001,0.013,0.004c0.04,0.021,0.083,0.029,0.127,0.035c0.008,0,0.015,0.006,0.022,0.006  c0.001,0,0.001-0.001,0.002-0.001c0.007,0.001,0.014,0.005,0.021,0.005c0.082,0,0.164-0.026,0.232-0.081l0.07-0.056  c0.042-0.033,0.072-0.072,0.093-0.115c0.002-0.005,0.008-0.007,0.011-0.012l0.065-0.132c0.01-0.02,0.01-0.04,0.016-0.06  c0.003-0.008,0.011-0.012,0.013-0.02l0.052-0.215c0.001-0.005,0-0.01,0.001-0.015c0-0.003,0.003-0.005,0.004-0.008l0.047-0.263  c0.002-0.009-0.002-0.017-0.001-0.025c0.001-0.005,0.006-0.007,0.006-0.012l0.023-0.31c0-0.002-0.001-0.004-0.001-0.006  s0.002-0.004,0.002-0.007l0.014-0.328c0-0.003-0.001-0.006-0.001-0.009c0-0.002,0.001-0.005,0.001-0.007V52.87  c0-0.003-0.001-0.005-0.002-0.008c0-0.003,0.002-0.006,0.002-0.01l-0.009-0.183c0-0.002-0.001-0.003-0.001-0.005  c0-0.001,0-0.001,0-0.002l-0.02-0.3c0-0.007-0.004-0.012-0.005-0.019c0-0.007,0.002-0.013,0.001-0.019l-0.042-0.253  c-0.001-0.007-0.005-0.012-0.007-0.018c-0.001-0.007,0.001-0.013-0.001-0.019l-0.052-0.192c-0.005-0.017-0.016-0.029-0.022-0.045  c-0.005-0.013-0.006-0.027-0.013-0.04l-0.065-0.117c-0.006-0.011-0.016-0.017-0.022-0.026c-0.014-0.021-0.03-0.039-0.048-0.057  c-0.02-0.019-0.039-0.034-0.062-0.049c-0.01-0.006-0.016-0.015-0.025-0.02l-0.065-0.033c-0.015-0.008-0.029-0.007-0.044-0.012  c-0.028-0.011-0.057-0.021-0.087-0.024c-0.002,0-0.005-0.002-0.007-0.002l0.016-0.083l0.22-0.987l0,0l0.107-0.465v-0.001  l0.319-1.321l0.227-0.744c0.001-0.003,0-0.006,0.001-0.009c0.001-0.002,0.003-0.003,0.004-0.006l0.305-1.172  c0.002-0.006,0-0.012,0.001-0.018c0.001-0.003,0.003-0.004,0.004-0.007l0.221-1.152c0-0.002,0-0.003,0-0.005  c0-0.001,0.001-0.001,0.001-0.002l0.178-1.036c0-0.001,0-0.002,0-0.003c0-0.002,0.002-0.003,0.002-0.004l0.164-1.083  c0.001-0.006-0.001-0.011-0.001-0.016c0-0.003,0.003-0.004,0.003-0.006l0.154-1.65c0.001-0.015-0.004-0.027-0.004-0.041  c-0.001-0.018,0.005-0.033,0.002-0.051l-0.136-0.886c0,0,0,0,0-0.001l-0.328-2.173c0-0.001-0.001-0.001-0.001-0.002l-0.162-1.174  v-0.001l-0.148-1.17l0,0l-0.127-1.172l0,0l-0.117-1.146l0,0l-0.111-1.127c0-0.001,0-0.002,0-0.003l-0.099-1.115l0,0l-0.094-1.101  c0-0.001-0.001-0.002-0.001-0.002l-0.079-1.112l-0.078-1.129c0-0.001,0-0.001,0-0.002l-0.057-1.195c0,0,0,0,0-0.001l-0.042-1.144  l-0.026-0.715l0.068,0.151l0.104,0.566c0,0,0,0,0,0.001l0.109,0.671l0.099,0.756l0.001,0.001l0.098,0.824l0,0  c0,0.001,0,0.001,0,0.002l0.107,0.877v0.001l0.108,0.934c0,0,0,0,0,0.001c0.001,0.002,0,0.004,0,0.006l0.131,0.971  c0,0.001,0.001,0.001,0.001,0.002v0.001l0.146,1.021l0,0c0,0.002,0,0.003,0,0.004l0.164,1.068c0,0.001,0.001,0.001,0.001,0.002  c0,0.002,0,0.003,0,0.005l0.188,1.098c0,0.001,0.001,0.001,0.001,0.002s0,0.002,0,0.003l0.211,1.144  c0,0.001,0.001,0.001,0.001,0.002l0.224,1.18c0,0.001,0,0.003,0,0.004l0.229,1.233c0,0.001,0.001,0.001,0.001,0.001l0.2,1.273l0,0  l0.178,1.302l0.057,1.276c0,0.005,0.003,0.008,0.003,0.013c0,0.004-0.001,0.007-0.001,0.011l0.312,2.882l-0.103,0.574  c-0.001,0.007,0.001,0.013,0.001,0.02c-0.001,0.008-0.006,0.015-0.006,0.022l-0.074,1.143l-0.076,0.123  c-0.008,0.013-0.009,0.027-0.015,0.04c-0.007,0.013-0.017,0.022-0.021,0.036l-0.31,0.899c0,0.002,0,0.003-0.001,0.004  c0,0.001-0.001,0.002-0.001,0.003L28.1,48.096c0,0.001,0,0.002,0,0.003c-0.001,0.003-0.003,0.004-0.004,0.007l-0.243,0.83  c-0.008,0.025-0.005,0.051-0.007,0.076c0,0.013-0.002,0.021-0.002,0.033c0.001,0.089,0.033,0.17,0.09,0.236  c0.004,0.005,0.002,0.013,0.007,0.018l0.431,0.454c0.005,0.005,0.012,0.007,0.017,0.012c0.004,0.004,0.006,0.01,0.011,0.014  l0.46,0.398c0.003,0.003,0.008,0.001,0.011,0.004c0.007,0.006,0.011,0.015,0.019,0.02l0.506,0.356c0.001,0.001,0.003,0,0.004,0.001  c0.003,0.002,0.004,0.005,0.006,0.006l1.2,0.787c0.006,0.004,0.013,0.002,0.02,0.006c0.009,0.005,0.015,0.014,0.024,0.019  l0.656,0.314c0.004,0.002,0.008,0.001,0.012,0.003s0.007,0.005,0.011,0.007l0.759,0.305c0.013,0.005,0.025,0.004,0.038,0.008  c0.012,0.003,0.022,0.012,0.035,0.014l0.835,0.15c0.001,0,0.003,0,0.004,0l0.851,0.149c0.009,0.002,0.018,0.001,0.026,0.002  c0.002,0.001,0.003,0.002,0.005,0.002l0.891,0.08c0.011,0.002,0.022,0.002,0.033,0.002c0.001,0,0.001,0,0.002,0l0.924-0.005  c0.004,0,0.008,0,0.011,0l1.388-0.047c0.001,0,0.002-0.001,0.002-0.001c0.004,0,0.007,0,0.011,0l1.396-0.094  c0.001,0,0.001,0,0.001,0c0.004-0.001,0.008-0.001,0.012-0.001l1.336-0.136c0.001,0,0.002-0.001,0.003-0.001s0.001,0,0.002,0  l1.266-0.146h0.001c0.003-0.001,0.006-0.001,0.009-0.001l1.031-0.146c0.001,0,0.002-0.001,0.003-0.001  c0.004-0.001,0.008,0,0.012-0.001l1.266-0.229c0.062-0.012,0.114-0.041,0.16-0.077c0.004-0.002,0.009-0.001,0.012-0.004l0.226-0.188  c0.048-0.04,0.079-0.09,0.103-0.144c0.002-0.005,0.007-0.007,0.009-0.012l0.178-0.469c0.001-0.004,0.001-0.008,0.002-0.011  s0.003-0.004,0.004-0.006l0.562-1.729l0.59,0.04c0.001,0,0.001,0.001,0.002,0.001l1.14,0.099c0.007,0.001,0.014,0.001,0.02,0.001  l1.405,0.083c0.005,0.001,0.009,0,0.013,0.001c0.001,0,0.001,0,0.002,0l1.552,0.033c0.003,0,0.005,0,0.008,0h1.575  c0.003,0,0.005,0,0.008,0l1.552-0.033c0.001,0,0.001,0,0.002,0c0.004-0.001,0.008,0,0.013-0.001l1.409-0.083  c0.007,0,0.014,0,0.021-0.001l1.139-0.099c0.001,0,0.001-0.001,0.002-0.001l0.59-0.04l0.558,1.728  c0.001,0.002,0.003,0.003,0.004,0.005c0.001,0.005,0,0.009,0.002,0.013l0.178,0.469c0.002,0.005,0.007,0.007,0.01,0.012  c0.022,0.054,0.054,0.104,0.102,0.144l0.226,0.188c0.003,0.003,0.008,0.002,0.012,0.004c0.046,0.036,0.099,0.065,0.16,0.077  l1.266,0.229c0.005,0.001,0.009,0.001,0.014,0.001c0.001,0,0.001,0.001,0.002,0.001l1.04,0.146c0.003,0,0.005,0,0.008,0.001  c0,0,0,0,0.001,0l1.257,0.146c0.001,0,0.002,0,0.002,0c0.001,0,0.002,0.001,0.003,0.001l1.34,0.136c0.004,0,0.008,0,0.011,0.001  c0.001,0,0.001,0,0.002,0l1.393,0.094c0.004,0,0.007,0,0.01,0c0.001,0,0.002,0.001,0.003,0.001l1.388,0.047c0.003,0,0.007,0,0.011,0  l0.933,0.005c0.001,0,0.001,0,0.002,0c0.011,0,0.022,0,0.034-0.002l0.886-0.08c0.002,0,0.004-0.001,0.006-0.002  c0.008-0.001,0.017,0,0.025-0.002l0.848-0.149c0.001,0,0.001,0,0.002,0l0.839-0.15c0.013-0.002,0.022-0.011,0.035-0.014  c0.013-0.004,0.026-0.003,0.039-0.008l0.755-0.305c0.004-0.002,0.007-0.006,0.012-0.008c0.003-0.001,0.007,0,0.01-0.002l0.656-0.314  c0.01-0.005,0.016-0.014,0.024-0.019c0.007-0.004,0.014-0.002,0.02-0.006l1.2-0.787c0.002-0.001,0.003-0.003,0.005-0.005  c0.001,0,0.003,0,0.004-0.001l0.511-0.356c0.008-0.006,0.012-0.015,0.02-0.021c0.004-0.003,0.009-0.002,0.013-0.005l0.455-0.398  c0.005-0.004,0.007-0.01,0.011-0.015c0.005-0.004,0.011-0.005,0.015-0.01l0.431-0.454c0.005-0.005,0.002-0.013,0.007-0.018  c0.057-0.066,0.089-0.147,0.09-0.236c0.001-0.012-0.001-0.021-0.002-0.032c-0.002-0.026,0.001-0.052-0.007-0.077l-0.243-0.83  c-0.001-0.003-0.003-0.004-0.004-0.007c0-0.001,0-0.002,0-0.003l-0.244-0.755c0-0.001-0.001-0.002-0.001-0.003  c-0.001-0.001,0-0.002-0.001-0.004l-0.31-0.899c-0.005-0.013-0.014-0.021-0.02-0.034c-0.006-0.012-0.007-0.025-0.014-0.037  l-0.075-0.125l-0.078-1.146c-0.001-0.008-0.005-0.014-0.005-0.021c-0.001-0.007,0.001-0.013,0-0.02l-0.103-0.574l0.312-2.882  c0-0.004-0.001-0.007-0.001-0.011c0-0.005,0.003-0.008,0.003-0.013l0.057-1.276l0.177-1.299c0.001,0,0.001-0.001,0.001-0.001  l0.21-1.277l0,0l0.225-1.232l0,0l0.221-1.186l0.211-1.144c0-0.001,0-0.002,0-0.003s0.001-0.001,0.001-0.002l0.188-1.098  c0-0.002,0-0.003,0-0.005c0-0.001,0.001-0.001,0.001-0.002l0.164-1.068c0-0.001,0-0.002,0-0.004l0,0l0.146-1.021v-0.001  c0-0.001,0.001-0.001,0.001-0.002l0.131-0.971c0-0.002,0-0.003,0-0.004s0-0.001,0-0.001l0.112-0.938v-0.001l0,0l0.104-0.877  l0.098-0.824l0.001-0.001l0.098-0.756l0.11-0.671c0-0.001,0-0.001,0-0.001l0.104-0.566l0.068-0.151l-0.026,0.715c0,0,0,0,0,0.001  l0,0l-0.038,1.142c0,0.001,0,0.001,0,0.001l-0.061,1.195c0,0.001,0.001,0.002,0,0.003l-0.068,1.124  c-0.001,0.001-0.001,0.001-0.001,0.002l-0.089,1.119l0,0l-0.089,1.102c0,0.001,0,0.002,0,0.003l-0.103,1.108l-0.103,1.125  c0,0.001-0.001,0.002-0.001,0.003l-0.126,1.148v0.001l0,0l-0.127,1.172l0,0l-0.147,1.165c0,0.001-0.001,0.001-0.001,0.002  l-0.16,1.186c0,0,0,0,0,0.001l-0.299,1.995c0,0.001,0,0.001,0,0.002s-0.001,0.002-0.001,0.003l-0.023,0.173c0,0.001,0,0.002,0,0.003  l-0.139,0.875c-0.003,0.017,0.002,0.031,0.002,0.048c0,0.015-0.006,0.029-0.005,0.045l0.15,1.65c0,0.002,0.003,0.003,0.003,0.006  c0,0.006-0.002,0.011-0.001,0.017l0.164,1.083c0,0.001,0.002,0.002,0.002,0.004c0,0.001,0,0.002,0,0.003l0.178,1.036  c0,0.001,0.001,0.001,0.001,0.002c0,0.002,0,0.003,0,0.005l0.221,1.152c0,0.003,0.003,0.004,0.004,0.007  c0.001,0.006-0.001,0.012,0.001,0.018l0.305,1.172c0.001,0.003,0.003,0.004,0.004,0.006c0.001,0.003,0,0.006,0.001,0.009l0.226,0.74  l0.043,0.178l0.278,1.151c0,0,0,0,0,0.001l0.11,0.459c0,0,0,0,0,0.001l0.214,0.98l0,0l0.018,0.093  c-0.062,0.006-0.121,0.025-0.175,0.062c-0.009,0.003-0.02,0.003-0.028,0.008c-0.013,0.007-0.021,0.019-0.032,0.025  c-0.021,0.014-0.038,0.027-0.056,0.044c-0.02,0.02-0.035,0.039-0.05,0.062c-0.008,0.011-0.019,0.018-0.024,0.029l-0.062,0.117  c-0.007,0.012-0.006,0.025-0.011,0.037c-0.006,0.014-0.016,0.024-0.02,0.039l-0.052,0.192c-0.002,0.006,0,0.012-0.001,0.019  c-0.002,0.006-0.006,0.011-0.007,0.018l-0.042,0.253c-0.001,0.006,0.001,0.011,0.001,0.017c-0.001,0.006-0.005,0.01-0.005,0.016  l-0.023,0.3c0,0.002,0.001,0.004,0.001,0.006s-0.002,0.004-0.002,0.006l-0.009,0.183c0,0.004,0.002,0.007,0.002,0.01  s-0.002,0.005-0.002,0.008v0.146c0,0.002,0.001,0.005,0.001,0.007c0.001,0.003-0.001,0.006-0.001,0.009l0.014,0.328  c0,0.003,0.002,0.005,0.002,0.007s-0.001,0.004-0.001,0.006l0.023,0.31c0,0.005,0.005,0.007,0.006,0.012  c0.001,0.009-0.003,0.017-0.001,0.025l0.047,0.263c0.001,0.003,0.004,0.005,0.004,0.008c0.002,0.005,0,0.01,0.001,0.015l0.052,0.215  c0.002,0.008,0.01,0.012,0.013,0.02c0.006,0.02,0.006,0.04,0.016,0.06l0.065,0.132c0.034,0.069,0.089,0.121,0.151,0.156  c0.008,0.008,0.014,0.02,0.022,0.026c0.068,0.055,0.15,0.081,0.232,0.081c0.076,0,0.146-0.031,0.21-0.076  c0.013-0.005,0.028-0.003,0.04-0.01l0.001-0.001c0.003-0.001,0.005-0.005,0.008-0.007c0.03-0.018,0.055-0.042,0.077-0.067  l-0.023,0.389l-0.017,0.062c-0.11-0.014-0.221,0.008-0.306,0.091l-0.255,0.25l0,0l-0.321,0.298l0,0l-0.365,0.333  c-0.001,0.001,0,0.002-0.001,0.003h-0.001l-0.401,0.373c-0.001,0.001-0.001,0.001-0.002,0.001l-0.436,0.403  c-0.001,0.001,0,0.002-0.001,0.002c-0.001,0.001-0.001,0-0.002,0.001l-0.455,0.431c0,0,0,0.001-0.001,0.002h-0.001l-0.474,0.455  v0.001c-0.001,0-0.001,0-0.001,0l-1.058,1.02l0,0l-0.615,0.588l0,0l-0.703,0.656c-0.001,0.001-0.001,0.002-0.001,0.003h-0.001  l-0.76,0.722c-0.001,0,0,0.001-0.001,0.002s-0.002,0-0.003,0.001l-0.792,0.773c-0.001,0.001-0.001,0.004-0.002,0.005  c-0.002,0.001-0.004,0.001-0.005,0.002l-0.802,0.82c-0.001,0.001-0.001,0.003-0.002,0.004s-0.003,0.001-0.004,0.002l-0.787,0.844  c-0.002,0.002-0.001,0.006-0.003,0.008s-0.004,0.001-0.006,0.003l-0.76,0.877c-0.001,0.001-0.001,0.003-0.002,0.004  s-0.002,0.001-0.003,0.002l-0.74,0.891c-0.001,0.001-0.001,0.003-0.002,0.004c-0.002,0.003-0.005,0.004-0.007,0.006l-0.703,0.909  c-0.001,0.001-0.001,0.003-0.002,0.005c-0.001,0.001-0.002,0.001-0.003,0.002l-0.666,0.9c-0.001,0.002-0.001,0.004-0.003,0.006  c-0.001,0.001-0.002,0.002-0.003,0.003l-0.633,0.909c-0.001,0.002-0.002,0.005-0.003,0.007s-0.004,0.003-0.005,0.005l-0.586,0.914  c-0.001,0.002-0.001,0.004-0.002,0.005c-0.002,0.003-0.004,0.004-0.006,0.007l-0.534,0.909c-0.002,0.003-0.002,0.007-0.004,0.01  c-0.001,0.003-0.004,0.004-0.005,0.007l-0.479,0.914c-0.001,0.001,0,0.003-0.001,0.004c-0.001,0.002-0.003,0.003-0.004,0.005  l-0.417,0.854c-0.001,0.002-0.001,0.004-0.002,0.006c0,0.002-0.002,0.003-0.003,0.005l-0.333,0.74  c-0.085,0.189-0.001,0.411,0.188,0.496c0.051,0.022,0.103,0.033,0.154,0.033c0.143,0,0.279-0.082,0.342-0.221l0.329-0.73  l0.416-0.853v-0.001l0.466-0.89l0.533-0.907v-0.001l0.574-0.896l0.622-0.895c0.001,0,0.001,0,0.001,0l0.661-0.894l0,0l0.703-0.909  c0.001-0.001,0.001-0.001,0.001-0.002l0.726-0.873l0.75-0.865l0.001-0.001l0.787-0.844l0,0l0.793-0.811l0.788-0.771  c0,0,0-0.001,0.001-0.001l0.751-0.714c0.001-0.001,0.001,0,0.002-0.001l0.703-0.656c0.001-0.001,0-0.002,0.001-0.002  c0.001-0.001,0.001,0,0.002-0.001l0.618-0.591c0,0,0-0.001,0.001-0.001c0-0.001,0.001-0.001,0.001-0.001l1.059-1.021l0,0  l0.472-0.453l0,0l0.452-0.428l0,0l0.436-0.403c0.001-0.001,0-0.001,0.001-0.002l0.398-0.37c0-0.001,0.001,0,0.002-0.001l0.365-0.333  c0,0,0-0.001,0.001-0.002h0.001l0.028-0.026l-0.25,0.759l-0.06,0.181l-0.332,0.936l-0.449,1.09l-1.077,2.002l-0.235,0.334  c-0.001,0.001-0.001,0.003-0.002,0.004c0,0.001-0.001,0.001-0.002,0.002l-0.4,0.593l-0.689,0.88l-0.729,0.843  c-0.001,0-0.001,0-0.001,0l-0.445,0.474v0.001h-0.001l-0.333,0.356c0,0.001,0,0.001-0.001,0.002l-0.047,0.05  c0,0.001-0.001,0.001-0.001,0.001l-0.717,0.75c-0.001,0.001,0,0.001-0.001,0.002c0,0.001-0.001,0-0.002,0.001l-0.727,0.778  c-0.002,0.002-0.001,0.005-0.002,0.007c-0.004,0.004-0.009,0.005-0.012,0.009l-0.614,0.736c-0.002,0.002-0.002,0.004-0.003,0.006  c-0.002,0.002-0.004,0.003-0.006,0.005l-0.572,0.74c-0.002,0.003-0.003,0.007-0.005,0.01s-0.004,0.004-0.006,0.006l-0.496,0.713  c-0.003,0.004-0.003,0.009-0.006,0.013c-0.003,0.005-0.009,0.008-0.012,0.014l-0.408,0.708c-0.003,0.005-0.003,0.011-0.006,0.017  c-0.002,0.004-0.006,0.007-0.008,0.011l-0.333,0.703c-0.002,0.004-0.002,0.009-0.003,0.014c-0.003,0.006-0.008,0.009-0.01,0.015  l-0.258,0.688c-0.002,0.006-0.001,0.013-0.003,0.019s-0.006,0.01-0.008,0.016l-0.183,0.68c-0.002,0.006,0,0.012-0.001,0.018  c-0.002,0.007-0.006,0.011-0.007,0.018l-0.112,0.661c-0.001,0.005,0.001,0.01,0,0.015c0,0.004-0.003,0.008-0.003,0.012l-0.065,0.675  c-0.001,0.01,0.003,0.02,0.003,0.029s-0.005,0.018-0.004,0.027l0.059,1.051l-0.059,0.673c0,0.001,0,0.001,0,0.001  c0,0.001,0,0.001,0,0.001l-0.045,0.549l-0.428,0.398l0,0L63.749,76.092z M42.46,74.048C42.461,74.048,42.461,74.048,42.46,74.048  l1.878-0.222l2.374-0.129c0.002,0,0.004,0,0.005,0l2.598-0.057h1.873l2.597,0.057c0.001,0,0.003,0,0.005,0l2.37,0.129l0.621,0.073  c0.001,0,0.002,0.001,0.003,0.001l0.619,0.084c0.005,0,0.009,0,0.013,0.001c0.001,0,0.001,0,0.001,0l0.643,0.064l0.617,0.106  l-0.337,1.253l0,0l-0.422,1.495v0.001l-0.448,1.503c-0.002,0.006,0,0.011-0.002,0.017c-0.001,0.004-0.004,0.007-0.005,0.012  l-0.256,1.183l-0.089,0.221l-0.715-0.106l0,0l-1.522-0.252c-0.003,0-0.006,0.001-0.009,0c-0.002,0-0.004-0.002-0.007-0.002  l-1.243-0.154l-0.027-0.01l-0.032-0.491c0-0.007-0.004-0.012-0.005-0.019c0-0.006,0.002-0.012,0.001-0.019l-0.023-0.141  c-0.001-0.003-0.003-0.005-0.003-0.008c-0.005-0.024-0.017-0.046-0.025-0.068c-0.01-0.022-0.016-0.047-0.028-0.066  c-0.009-0.014-0.022-0.023-0.033-0.036c-0.021-0.024-0.041-0.049-0.067-0.066c-0.003-0.002-0.004-0.005-0.007-0.007l-0.094-0.062  c-0.005-0.003-0.011-0.003-0.015-0.006c-0.02-0.012-0.041-0.018-0.062-0.025c-0.027-0.011-0.053-0.021-0.081-0.024  c-0.004-0.001-0.008-0.004-0.012-0.004l-0.141-0.014c-0.002,0-0.004,0.001-0.007,0.001c-0.003-0.001-0.006-0.003-0.01-0.003  l-0.268-0.014c-0.002,0-0.003,0.002-0.004,0.002c-0.003,0-0.005-0.002-0.008-0.002l-1.659-0.033c-0.003,0-0.006,0-0.008,0h-1.509  c-0.002,0-0.005,0-0.008,0l-1.655,0.033c-0.002,0-0.003,0.001-0.005,0.001s-0.004-0.001-0.006-0.001l-0.271,0.014  c-0.004,0-0.007,0.002-0.011,0.003c-0.002,0-0.005-0.001-0.007-0.001l-0.141,0.014c-0.005,0-0.008,0.003-0.013,0.004  c-0.027,0.004-0.052,0.014-0.078,0.023c-0.021,0.008-0.044,0.015-0.064,0.026c-0.005,0.003-0.01,0.003-0.015,0.006l-0.094,0.062  c-0.046,0.03-0.082,0.069-0.109,0.113c-0.002,0.004-0.003,0.008-0.005,0.012c-0.021,0.037-0.039,0.077-0.047,0.119  c-0.001,0.003-0.003,0.005-0.003,0.008l-0.023,0.141c-0.001,0.007,0.001,0.013,0.001,0.019c-0.001,0.008-0.005,0.014-0.005,0.021  l-0.029,0.488l-0.03,0.01l-1.24,0.155c-0.003,0-0.005,0.002-0.007,0.002c-0.003,0.001-0.005,0-0.008,0l-1.526,0.252l0,0  l-0.713,0.106l-0.089-0.217l-0.248-1.185c-0.001-0.007-0.006-0.011-0.008-0.018c-0.001-0.005,0.001-0.01-0.001-0.015l-0.456-1.5  c0,0,0-0.001,0-0.002l-0.422-1.495l0,0l-0.337-1.252L42.46,74.048z M56.473,81.394l-0.195,1.076v0.001l0,0l-0.201,1.111  c-0.001,0.006,0.001,0.011,0,0.017c0,0.005-0.004,0.009-0.004,0.014l-0.06,0.606l-0.703-0.031l-1.166-0.115  c-0.004,0-0.006,0.001-0.01,0.001c-0.003,0-0.005-0.002-0.008-0.002l-1.439-0.075c-0.002,0-0.004,0.001-0.006,0.001  c-0.003,0-0.005-0.002-0.008-0.002l-1.561-0.023c-0.002,0-0.004,0-0.006,0h-1.716c-0.001,0-0.002,0.001-0.003,0.001  s-0.002-0.001-0.003-0.001l-1.557,0.023c-0.003,0-0.005,0.001-0.008,0.002c-0.002,0-0.004-0.001-0.006-0.001l-1.443,0.075  c-0.003,0-0.005,0.002-0.008,0.002c-0.004,0-0.006-0.001-0.01-0.001l-1.162,0.115l-0.706,0.031l-0.056-0.604  c0-0.006-0.004-0.01-0.004-0.016c-0.001-0.005,0.001-0.011,0-0.016l-0.197-1.111c0-0.001-0.001-0.002-0.001-0.003  c0,0,0-0.001,0-0.002l-0.203-1.071c0-0.001,0-0.001,0-0.001l-0.081-0.544l0.447-0.11l1.418-0.213c0.001,0,0.002-0.001,0.003-0.001  l1.147-0.178c0.001,0,0.002-0.001,0.002-0.001c0.004,0,0.008,0,0.012-0.001l0.651-0.127c0.063-0.013,0.115-0.043,0.162-0.081  c0.01-0.008,0.016-0.016,0.024-0.024c0.058-0.057,0.097-0.126,0.109-0.207c0-0.004,0.004-0.006,0.005-0.01l0.072-0.588l0.122-0.016  l1.426,0.019c0.002,0,0.003,0,0.005,0h1.397c0.002,0,0.003,0,0.005,0l1.426-0.019l0.123,0.016l0.075,0.59  c0,0.004,0.005,0.006,0.005,0.01c0.013,0.08,0.053,0.149,0.11,0.206c0.009,0.009,0.015,0.017,0.024,0.024  c0.046,0.037,0.099,0.068,0.161,0.08l0.656,0.127c0.004,0.001,0.008,0.001,0.012,0.001c0,0,0.001,0.001,0.002,0.001l1.139,0.178  c0.001,0,0.002,0.001,0.003,0.001l1.422,0.213l0.446,0.11L56.473,81.394L56.473,81.394z M30.555,45.193  C30.555,45.194,30.556,45.194,30.555,45.193l1.275,0.334c0.003,0.001,0.007,0.001,0.01,0.001c0.001,0,0.001,0.001,0.002,0.001  l2.489,0.567c0.001,0,0.002,0,0.003,0c0.002,0.001,0.003,0.002,0.004,0.002l2.794,0.576c0.003,0.001,0.006,0,0.008,0.001  c0.003,0,0.004,0.002,0.006,0.002l2.958,0.497c0.004,0.001,0.008,0,0.012,0.001l0,0l2.985,0.408c0.005,0.001,0.01,0.001,0.015,0.001  c0.001,0,0.002,0.001,0.003,0.001l2.827,0.253c0.004,0.001,0.008,0,0.012,0.001h0.001l2.625,0.141  c0.007,0.001,0.014,0.001,0.021,0.001h3.29c0.007,0,0.014,0,0.021-0.001l2.625-0.141h0.001c0.004-0.001,0.008,0,0.012-0.001  l2.831-0.253c0.001,0,0.002-0.001,0.003-0.001c0.005,0,0.01,0,0.015-0.001l2.981-0.408l0,0c0.004-0.001,0.008,0,0.012-0.001  l2.958-0.497c0.002,0,0.004-0.002,0.006-0.002c0.002-0.001,0.005,0,0.008-0.001l2.794-0.576c0.001,0,0.002-0.001,0.004-0.002  c0.001,0,0.002,0,0.003,0l2.489-0.567c0.001,0,0.001-0.001,0.002-0.001c0.003,0,0.007,0,0.01-0.001l1.274-0.333  c0,0,0.001,0,0.001-0.001l0.929-0.239l0.038,0.211l0.06,0.881l-0.229,0.043c-0.003,0.001-0.005,0.002-0.007,0.003  c-0.002,0-0.004,0-0.006,0l-1.083,0.239l-1.438,0.317c-0.001,0-0.002,0-0.002,0l-1.453,0.31c0,0,0,0-0.001,0l-1.618,0.293H65.13  l-1.953,0.307c0,0-0.001,0-0.002,0l-2.25,0.295l0,0l-2.323,0.241l-2.579,0.104c-0.002,0-0.004,0.001-0.006,0.002  c-0.002,0-0.003-0.001-0.005-0.001l-0.891,0.061c-0.001,0-0.001,0-0.002,0.001c-0.002,0-0.003-0.001-0.005-0.001l-1.139,0.099  c-0.001,0-0.002,0.001-0.003,0.001L52.58,48.44l0,0l-1.552,0.033h-1.56l-1.552-0.033l0,0l-1.388-0.082  c-0.001,0-0.002-0.001-0.003-0.001l-1.14-0.099c-0.002,0-0.003,0.001-0.005,0.001c-0.001-0.001-0.001-0.001-0.002-0.001  l-0.891-0.061c-0.002,0-0.003,0.001-0.005,0c-0.002,0-0.004-0.001-0.006-0.001l-2.583-0.104l-2.323-0.241l0,0l-2.245-0.295  c-0.001,0-0.002,0-0.002,0l-1.957-0.306c-0.001,0-0.001-0.001-0.002-0.001l-1.618-0.293c-0.001,0-0.001,0-0.001,0l-1.453-0.31  c-0.001,0-0.001,0-0.002,0l-1.435-0.317l-1.083-0.239c-0.002,0-0.004,0-0.006,0c-0.002-0.001-0.004-0.002-0.007-0.003l-0.23-0.043  l0.057-0.881l0.038-0.211L30.555,45.193z M69.5,50.711l-0.616,0.296l-0.712,0.287l-0.801,0.144c0,0,0,0-0.001,0l-0.834,0.147  l-0.845,0.076l-0.908-0.005l0,0l-1.388-0.047l0,0l-1.371-0.092l-1.336-0.136c-0.001,0-0.001,0-0.002,0l-1.241-0.144l0,0  l-1.023-0.144h-0.001l-1.171-0.212l-0.072-0.061l-0.048-0.127c0.007,0.005,0.012,0.011,0.019,0.016  c0.008,0.005,0.014,0.013,0.022,0.018c0.002,0.001,0.004,0.004,0.006,0.005l0.216,0.112c0.011,0.006,0.023,0.004,0.034,0.009  c0.031,0.012,0.061,0.026,0.095,0.03l1.158,0.136c0.003,0,0.005,0,0.008,0.001c0.002,0,0.003,0.001,0.005,0.001l0.956,0.08  c0.001,0,0.001,0,0.002,0l1.166,0.094c0.004,0,0.008,0,0.012,0l1.232,0.079c0.001,0,0.002,0,0.004,0  c0.001,0,0.002,0.001,0.003,0.001l1.28,0.057c0.004,0,0.007,0,0.01,0l1.284,0.023c0.001,0,0.002,0,0.003,0l0.857,0.009  c0.001,0,0.003,0,0.004,0c0.007,0,0.015,0,0.021-0.001l0.812-0.047l0,0c0.007,0,0.014-0.001,0.021-0.001l0.787-0.089  c0.001,0,0.002-0.001,0.003-0.001l0.773-0.094c0.005-0.001,0.009-0.004,0.014-0.005c0.012-0.001,0.022-0.001,0.034-0.004  l0.694-0.178c0.003-0.001,0.005-0.003,0.008-0.004c0.005-0.001,0.009-0.001,0.013-0.002l0.604-0.192  c0.006-0.002,0.01-0.007,0.016-0.009c0.005-0.002,0.011-0.001,0.016-0.003l0.388-0.162L69.5,50.711z M66.895,47.694  c0.001,0,0.002-0.001,0.003-0.001c0.003-0.001,0.006,0,0.009-0.001l1.453-0.31c0.001,0,0.001-0.001,0.002-0.001h0.001l1.443-0.318  l1.069-0.236h0.001l0.289-0.054l0.277,0.805c0,0,0,0,0,0.001l0.238,0.734c0,0.001,0,0.002,0,0.003l0.183,0.623l-0.004,0.005  l-0.164-0.373c-0.002-0.004-0.006-0.007-0.007-0.011c-0.002-0.003-0.001-0.006-0.003-0.009l-0.229-0.45  c-0.001-0.001-0.002-0.002-0.002-0.003c-0.001-0.002-0.001-0.004-0.002-0.006l-0.286-0.529c-0.012-0.022-0.031-0.037-0.047-0.056  c-0.004-0.006-0.002-0.014-0.007-0.02L71,47.366c-0.004-0.004-0.01-0.003-0.014-0.006c-0.062-0.064-0.143-0.103-0.233-0.107  c-0.009-0.001-0.016-0.002-0.025-0.002c-0.017,0-0.031-0.006-0.048-0.003l-0.516,0.062c-0.001,0-0.002,0.001-0.004,0.001  s-0.003,0-0.005,0l-0.994,0.141l-1.331,0.188h-0.001l-1.331,0.182l0,0l-0.87,0.104L66.895,47.694z M42.076,51.095L42.076,51.095  l-1.017,0.144c0,0,0,0-0.001,0l-1.248,0.144c-0.001,0-0.001,0-0.002,0l-1.332,0.136l-1.375,0.092l0,0l-1.388,0.047l0,0l-0.9,0.005  l-0.85-0.076l-0.836-0.146c-0.001-0.001-0.001-0.001-0.002-0.001l-0.799-0.144l-0.709-0.285l-0.621-0.298l-0.212-0.139l0.391,0.164  c0.005,0.002,0.011,0.001,0.016,0.003c0.006,0.002,0.01,0.007,0.016,0.009l0.604,0.192c0.004,0.001,0.008,0.001,0.013,0.002  c0.003,0.001,0.005,0.003,0.008,0.004l0.694,0.178c0.012,0.003,0.022,0.003,0.034,0.004c0.005,0.001,0.009,0.004,0.014,0.005  l0.777,0.094c0.001,0,0.002,0.001,0.003,0.001l0.783,0.089c0.007,0,0.014,0.001,0.021,0.001l0,0l0.815,0.047  c0.007,0.001,0.015,0.001,0.021,0.001c0.001,0,0.003,0,0.004,0l0.854-0.009c0.001,0,0.002,0,0.003,0l1.284-0.023  c0.003,0,0.007,0,0.01,0l1.284-0.057c0.001,0,0.002-0.001,0.003-0.001c0.002,0,0.003,0,0.005,0l1.228-0.079c0.004,0,0.008,0,0.012,0  l1.166-0.094c0.001,0,0.001,0,0.002,0l0.956-0.08c0.002,0,0.003-0.001,0.005-0.001c0.003-0.001,0.005-0.001,0.008-0.001l1.158-0.136  c0.032-0.004,0.061-0.018,0.09-0.029c0.012-0.005,0.025-0.003,0.037-0.009l0.22-0.112c0.003-0.002,0.005-0.005,0.008-0.007  c0.01-0.005,0.016-0.014,0.024-0.02c0.004-0.002,0.007-0.005,0.011-0.008l-0.046,0.122l-0.072,0.061L42.076,51.095z M30.695,47.063  l1.439,0.318h0.001c0.001,0,0.001,0.001,0.002,0.001l1.453,0.31c0.003,0.001,0.006,0,0.009,0.001c0.001,0,0.002,0.001,0.003,0.001  l1.26,0.228l-0.849-0.101c-0.002,0-0.003-0.001-0.004-0.001l-1.345-0.183c-0.001,0-0.002,0-0.003,0l-1.322-0.187l-0.998-0.141  c-0.002,0-0.003,0-0.005,0s-0.003-0.001-0.004-0.001l-0.516-0.062c-0.016-0.002-0.03,0.003-0.047,0.003  c-0.009,0-0.017,0.001-0.026,0.002c-0.091,0.006-0.171,0.044-0.232,0.106c-0.004,0.004-0.011,0.003-0.015,0.007l-0.112,0.122  c-0.005,0.006-0.003,0.015-0.008,0.021c-0.015,0.019-0.034,0.032-0.046,0.055l-0.286,0.529c-0.001,0.002-0.001,0.004-0.002,0.006  c0,0.001-0.002,0.002-0.002,0.003l-0.229,0.45c-0.002,0.003-0.001,0.006-0.003,0.009c-0.002,0.004-0.005,0.007-0.007,0.011  l-0.163,0.373l-0.005-0.005l0.183-0.623c0-0.001,0-0.002,0-0.003l0.238-0.734c0-0.001,0-0.001,0-0.001l0.277-0.806l0.293,0.055  h0.001L30.695,47.063z M22.061,41.696L22.061,41.696l0.013-0.11l0.08,0.457l0,0l0.007,0.06l-0.136,0.087L22.061,41.696z   M23.521,53.441l0.011,0.015c0.004,0.005,0.009,0.007,0.013,0.011c0.005,0.007,0.007,0.015,0.012,0.021l0.087,0.1  c-0.004,0.006-0.006,0.014-0.01,0.02c-0.012,0.023-0.026,0.046-0.033,0.07c-0.001,0.003-0.002,0.005-0.003,0.007l-0.145,0.573  L23.521,53.441z M76.899,53.683c-0.001-0.003-0.003-0.004-0.003-0.007c-0.007-0.023-0.021-0.045-0.032-0.067  c-0.004-0.007-0.006-0.014-0.01-0.02l0.088-0.1c0.006-0.007,0.008-0.016,0.014-0.022c0.004-0.006,0.011-0.008,0.015-0.014  l0.005-0.007l0.066,0.794L76.899,53.683z M78.345,42.061l0.08-0.468l0.012,0.104l0,0l0.039,0.494l-0.136-0.087L78.345,42.061z   M20.973,61.42c0.001-0.006,0.007-0.009,0.008-0.015l0.057-0.375c0-0.003-0.001-0.006,0-0.009c0-0.001,0.001-0.002,0.001-0.003  l0.065-0.553c0-0.003-0.001-0.005-0.001-0.008c0.001-0.002,0.003-0.003,0.003-0.005l0.061-0.713c0-0.002-0.001-0.003-0.001-0.005  c0.001-0.001,0.001-0.001,0.001-0.002l0.057-0.862V58.87c0-0.001,0-0.001,0-0.001l0.061-0.993c0,0,0,0,0-0.001  s0.001-0.002,0.001-0.004l0.052-1.093c0,0,0,0,0-0.001l0,0l0.052-1.19c0-0.001,0-0.002,0-0.002c0-0.001,0-0.001,0-0.002l0.042-1.252  c0,0,0,0,0-0.001l0,0l0.042-1.293c0-0.001,0-0.001,0-0.002s0-0.001,0-0.002l0.028-1.299c0,0,0,0,0-0.001l0,0l0.023-1.284  c0-0.001,0-0.001,0-0.002c0,0,0,0,0-0.001l0.014-1.247v-0.001v-0.001l0.005-1.177V48.02v-0.001v-1.092  c0-0.001-0.001-0.002-0.001-0.002c0-0.001,0.001-0.002,0.001-0.003l-0.014-0.971c0-0.001-0.001-0.002-0.001-0.003  s0.001-0.002,0.001-0.003l-0.023-0.844v-0.001V45.1l-0.023-0.698c0-0.002-0.001-0.004-0.002-0.007c0-0.001,0.001-0.002,0.001-0.004  l-0.033-0.534c0-0.004-0.003-0.007-0.003-0.011c-0.001-0.006,0.002-0.011,0.001-0.016l-0.047-0.348l0.422-0.271  c0.001,0,0.001-0.001,0.002-0.002l0.44-0.282l0.009,0.068v0.001l0.102,1.128c0,0.001,0,0.001,0,0.002l0.093,1.321  c0,0.001,0,0.001,0,0.002l0.07,1.509v0.001l0.052,1.615l0,0l0.042,1.681l0,0l0.019,1.677v1.618l-0.018,1.515  c-0.003,0.018-0.011,0.032-0.011,0.051c0,0.016,0.007,0.028,0.009,0.043l-0.032,1.425v0.001l-0.065,1.393c0,0,0,0,0,0.001  l-0.098,1.288c0,0.001,0,0.001,0,0.001L22.34,60.42c0,0.001,0,0.002,0,0.002l-0.093,0.986l-0.07,0.741  c-0.001,0.008,0.003,0.015,0.002,0.021c0,0.009-0.004,0.017-0.004,0.025l0.003,0.095l-1.206-0.857  C20.973,61.429,20.972,61.425,20.973,61.42z M78.319,62.295l0.003-0.101c0-0.009-0.004-0.016-0.004-0.023  c0-0.007,0.003-0.013,0.002-0.02l-0.066-0.741c0,0,0,0,0-0.001v-0.001l-0.093-0.986c0,0,0-0.001,0-0.002l-0.094-1.153l0,0  l-0.102-1.29l0,0L77.9,56.584c0,0,0,0,0-0.001l-0.031-1.407c0.003-0.021,0.012-0.039,0.012-0.061c0-0.025-0.01-0.048-0.015-0.071  l-0.018-1.494v-1.618l0.019-1.677l0,0l0.042-1.681l0,0l0.052-1.615v-0.001l0.07-1.509c0-0.001,0-0.001,0-0.002l0.093-1.321  c0-0.001,0-0.001,0-0.002l0.102-1.128v-0.001l0.009-0.068l0.443,0.284l0.424,0.271l-0.046,0.348  c-0.001,0.005,0.001,0.009,0.001,0.013s-0.003,0.007-0.003,0.011l-0.037,0.534c0,0.002,0.001,0.004,0.001,0.005  c0,0.004-0.002,0.006-0.002,0.009L78.992,45.1v0.001v0.001l-0.023,0.844c0,0.001,0.001,0.002,0.001,0.004  c0,0.001-0.001,0.002-0.001,0.003l-0.01,0.971c0,0.001,0,0.001,0,0.002s0,0.001,0,0.002v1.092v0.001v0.001l0.005,1.177l0,0  c0,0.001,0,0.001,0,0.001l0.01,1.247c0,0.001,0,0.001,0,0.002s0,0.001,0,0.002l0.023,1.284l0,0c0,0.001,0,0.001,0,0.001l0.028,1.299  c0,0.001,0,0.001,0,0.002s0,0.001,0,0.002l0.042,1.293l0,0c0,0.001,0,0.001,0,0.001l0.042,1.252c0,0.001,0,0.001,0,0.002  c0,0,0,0.001,0,0.002l0.052,1.19l0,0c0,0.001,0,0.001,0,0.001l0.052,1.093c0,0.002,0.001,0.003,0.001,0.004s0,0.001,0,0.001  l0.061,0.993v0.001c0,0.001,0,0.002,0,0.003l0.061,0.862c0,0,0,0,0,0.001c0,0,0,0.001,0,0.002l0.057,0.713  c0,0.002,0.003,0.003,0.003,0.006s-0.001,0.006-0.001,0.009l0.065,0.553c0,0.001,0.001,0.002,0.002,0.003  c0,0.003-0.001,0.006-0.001,0.009l0.057,0.375c0.001,0.007,0.008,0.01,0.009,0.016c0.001,0.005,0,0.009,0.001,0.013L78.319,62.295z"/><path fill="#000000" d="M27.267,75.914c0.014-0.005,0.022-0.016,0.034-0.021c0.017-0.008,0.029-0.018,0.044-0.027  c0.043-0.03,0.078-0.066,0.104-0.109c0.004-0.007,0.012-0.01,0.016-0.017l0.131-0.244c0.018-0.032,0.023-0.066,0.03-0.101  c0.002-0.007,0.009-0.01,0.01-0.017l0.042-0.262c0.001-0.004-0.001-0.008,0-0.012c0-0.003,0.003-0.004,0.003-0.007l0.015-0.132  c0.001-0.01-0.003-0.018-0.002-0.027c0-0.009,0.004-0.017,0.004-0.025l-0.015-0.482c0-0.012-0.006-0.021-0.008-0.032  c-0.001-0.011,0.002-0.021,0-0.032l-0.107-0.516c-0.002-0.01-0.008-0.016-0.011-0.025c-0.003-0.008-0.001-0.017-0.004-0.025  l-0.164-0.455c-0.005-0.014-0.015-0.022-0.021-0.035c-0.006-0.013-0.007-0.026-0.015-0.039l-0.202-0.318  c-0.001-0.001-0.002-0.001-0.002-0.002c-0.014-0.021-0.034-0.036-0.053-0.055c-0.018-0.018-0.032-0.039-0.053-0.053  c-0.001,0-0.001-0.001-0.002-0.002l-0.22-0.146c-0.015-0.01-0.031-0.012-0.047-0.02c-0.025-0.013-0.05-0.025-0.078-0.031  c-0.023-0.006-0.047-0.004-0.071-0.005c-0.019-0.001-0.036-0.007-0.055-0.004l-0.197,0.023c-0.007,0.001-0.012,0.005-0.018,0.006  c-0.028,0.005-0.054,0.016-0.08,0.026c-0.02,0.008-0.039,0.014-0.056,0.024c-0.021,0.013-0.037,0.03-0.055,0.047  c-0.019,0.018-0.037,0.034-0.052,0.055c-0.004,0.006-0.01,0.009-0.014,0.015l-0.138,0.22c-0.027,0.042-0.047,0.089-0.056,0.142  l-0.07,0.413c-0.002,0.014,0.002,0.026,0.001,0.04s-0.007,0.025-0.006,0.039l0.023,0.529c0.001,0.01,0.006,0.019,0.007,0.028  s-0.002,0.019,0,0.028l0.023,0.117c0,0.001,0.001,0.001,0.001,0.001l0.079,0.418c0.001,0.007,0.009,0.011,0.011,0.018  c0.004,0.017,0.002,0.034,0.009,0.051l0.183,0.46c0.004,0.009,0.013,0.013,0.018,0.021c0.008,0.018,0.011,0.036,0.022,0.053  l0.216,0.313c0.002,0.002,0.004,0.003,0.006,0.005c0.03,0.043,0.069,0.081,0.118,0.108l0.013,0.007c0,0,0,0,0,0.001l0.203,0.114  c0.059,0.033,0.122,0.049,0.185,0.049c0.044,0,0.088-0.008,0.132-0.023L27.267,75.914z M26.85,75.021l-0.155-0.391l-0.073-0.385l0,0  c0-0.001,0-0.002,0-0.003l-0.018-0.09l-0.021-0.46l0.031-0.186l0.084,0.132l0.14,0.389l0.096,0.458l0.013,0.424l-0.012,0.105  l-0.017,0.105L26.85,75.021z"/><path fill="#000000" d="M74.661,73.609l-0.066-0.413c-0.001-0.003-0.003-0.007-0.004-0.01c-0.009-0.05-0.026-0.095-0.052-0.134  l-0.138-0.221c-0.004-0.006-0.01-0.009-0.014-0.015c-0.015-0.021-0.032-0.036-0.051-0.054c-0.018-0.018-0.035-0.035-0.056-0.048  c-0.017-0.011-0.035-0.017-0.054-0.024c-0.027-0.011-0.054-0.021-0.083-0.026c-0.006-0.001-0.011-0.005-0.018-0.006l-0.173-0.021  c-0.001,0-0.001,0-0.002,0l-0.026-0.003c-0.017-0.002-0.031,0.003-0.047,0.003c-0.027,0.001-0.055,0-0.082,0.006  c-0.041,0.009-0.076,0.025-0.11,0.047c-0.005,0.003-0.01,0.003-0.014,0.006l-0.009,0.006c-0.008,0.006-0.017,0.01-0.023,0.016  l-0.183,0.123c-0.019,0.013-0.032,0.033-0.049,0.05c-0.021,0.02-0.043,0.036-0.058,0.059l-0.205,0.317  c-0.008,0.013-0.01,0.026-0.016,0.04c-0.007,0.013-0.018,0.022-0.022,0.037L72.944,73.8c-0.003,0.009-0.001,0.018-0.004,0.026  c-0.003,0.01-0.009,0.017-0.011,0.026l-0.104,0.516c-0.002,0.009,0.001,0.018,0,0.026c-0.002,0.012-0.008,0.021-0.008,0.033  L72.8,74.91c-0.001,0.013,0.005,0.023,0.006,0.035c0.001,0.011-0.004,0.021-0.002,0.032l0.019,0.132l0,0v0.001l0.038,0.262  c0.001,0.006,0.007,0.009,0.008,0.015c0.007,0.037,0.015,0.073,0.033,0.108l0.131,0.244c0.004,0.007,0.012,0.01,0.016,0.017  c0.027,0.043,0.062,0.079,0.104,0.109c0.015,0.01,0.027,0.02,0.044,0.027c0.012,0.006,0.021,0.017,0.034,0.021l0.188,0.07  c0.044,0.016,0.088,0.023,0.132,0.023c0.062,0,0.126-0.016,0.185-0.049l0.203-0.114c0-0.001,0-0.001,0-0.001l0.013-0.007  c0.049-0.027,0.088-0.065,0.118-0.108c0.002-0.002,0.004-0.003,0.006-0.005l0.216-0.313c0.012-0.017,0.015-0.035,0.022-0.053  c0.004-0.009,0.014-0.013,0.018-0.021l0.183-0.46c0.007-0.017,0.005-0.034,0.009-0.051c0.002-0.007,0.01-0.011,0.011-0.018  l0.078-0.411l0.026-0.113c0.003-0.012-0.001-0.022,0.001-0.034c0.002-0.013,0.009-0.024,0.009-0.037l0.02-0.529  c0-0.014-0.005-0.025-0.006-0.038C74.659,73.633,74.663,73.621,74.661,73.609z M73.876,74.245l-0.073,0.385l-0.155,0.391  l-0.066,0.097l-0.017-0.114c0,0,0,0,0-0.001l-0.014-0.094l0.017-0.426l0.091-0.454l0.141-0.389l0.086-0.134l0.03,0.185l-0.018,0.459  l-0.019,0.081c-0.001,0.003,0,0.005,0,0.008C73.878,74.241,73.877,74.242,73.876,74.245z"/><path fill="#000000" d="M51.721,86.801c-0.001-0.027-0.008-0.052-0.015-0.076c-0.004-0.018-0.003-0.034-0.01-0.051l-0.084-0.202  c-0.003-0.006-0.008-0.01-0.011-0.016c-0.011-0.022-0.026-0.042-0.042-0.062s-0.029-0.04-0.047-0.057  c-0.005-0.004-0.008-0.011-0.013-0.015l-0.216-0.173c-0.004-0.003-0.009-0.001-0.012-0.004c-0.033-0.023-0.066-0.047-0.107-0.06  l-0.103-0.033c-0.002-0.001-0.004,0-0.006-0.001c-0.001,0-0.002-0.001-0.004-0.002l-0.239-0.07  c-0.013-0.004-0.024-0.001-0.037-0.004c-0.013-0.002-0.024-0.01-0.038-0.011l-0.455-0.037c-0.011-0.001-0.021,0.004-0.031,0.004  s-0.019-0.005-0.029-0.004l-0.464,0.037c-0.014,0.001-0.025,0.009-0.039,0.012c-0.013,0.002-0.025-0.001-0.038,0.003l-0.234,0.07  c-0.001,0-0.001,0.001-0.002,0.001c0,0,0,0-0.001,0l-0.107,0.033c-0.044,0.014-0.081,0.037-0.115,0.062  c-0.003,0.002-0.006,0.001-0.009,0.003l-0.216,0.173c-0.007,0.005-0.009,0.013-0.015,0.018c-0.018,0.017-0.031,0.035-0.046,0.055  c-0.016,0.021-0.031,0.042-0.042,0.065c-0.003,0.007-0.009,0.011-0.012,0.018l-0.08,0.202c-0.006,0.015-0.004,0.029-0.008,0.044  c-0.007,0.026-0.013,0.051-0.014,0.077c-0.002,0.025,0.002,0.049,0.006,0.074c0.002,0.016-0.001,0.031,0.004,0.048l0.062,0.211  c0.003,0.009,0.011,0.013,0.015,0.021c0.022,0.063,0.057,0.124,0.114,0.169l0.215,0.169c0.004,0.003,0.01,0.002,0.014,0.005  c0.032,0.023,0.065,0.045,0.105,0.058l0.343,0.107c0.021,0.006,0.041,0.007,0.061,0.01c0.01,0.001,0.017,0.006,0.026,0.007  l0.482,0.033c0.009,0.001,0.018,0.001,0.025,0.001c0.009,0,0.018,0,0.026-0.001l0.474-0.033c0.009-0.001,0.015-0.005,0.023-0.007  c0.021-0.002,0.041-0.002,0.062-0.009l0.347-0.107c0.043-0.014,0.079-0.036,0.113-0.062c0.003-0.003,0.007-0.002,0.01-0.004  l0.211-0.169c0.055-0.044,0.088-0.102,0.11-0.163c0.003-0.008,0.012-0.011,0.014-0.019l0.065-0.211  c0.006-0.018,0.003-0.034,0.005-0.052C51.718,86.852,51.723,86.826,51.721,86.801z M49.84,86.934l-0.234-0.073l-0.04-0.032  l0.062-0.049l0.035-0.011l0,0l0.196-0.059l0.395-0.032l0.39,0.032l0.191,0.057l0.033,0.011l0.065,0.052l-0.038,0.03l-0.239,0.074  l-0.403,0.028L49.84,86.934z"/><path fill="#000000" d="M32.642,21.363c0.004,0.025,0.015,0.047,0.023,0.07c0.007,0.018,0.008,0.036,0.018,0.053l0.094,0.164  c0.005,0.009,0.016,0.013,0.021,0.021c0.025,0.038,0.058,0.069,0.096,0.096c0.016,0.011,0.029,0.021,0.046,0.029  c0.01,0.005,0.017,0.014,0.027,0.018l0.206,0.08c0.045,0.018,0.091,0.025,0.136,0.025c0.009,0,0.019,0,0.028-0.001l0.305-0.023  c0.011-0.001,0.019-0.007,0.029-0.008c0.02-0.004,0.039-0.003,0.059-0.01l0.333-0.108c0.014-0.005,0.022-0.015,0.035-0.02  c0.01-0.005,0.021-0.003,0.029-0.008l0.375-0.206c0.013-0.008,0.021-0.02,0.033-0.028c0.005-0.004,0.013-0.002,0.018-0.006  l0.31-0.243c0.021-0.016,0.032-0.038,0.049-0.057c0.009-0.011,0.021-0.015,0.029-0.026l0.164-0.239  c0.03-0.044,0.049-0.092,0.059-0.14c0-0.001,0-0.001,0-0.001l0.042-0.216c0.003-0.018-0.001-0.033,0-0.051  c0.001-0.027,0.004-0.054-0.001-0.081s-0.016-0.051-0.025-0.076c-0.007-0.017-0.008-0.034-0.017-0.05l-0.094-0.164  c0-0.001-0.001-0.001-0.001-0.001c-0.013-0.022-0.032-0.038-0.049-0.057c-0.051-0.058-0.111-0.102-0.183-0.119l0,0l-0.347-0.089  c-0.003-0.001-0.005,0-0.008,0c-0.029-0.007-0.061-0.006-0.092-0.005c-0.022,0-0.044-0.002-0.065,0.002  c-0.005,0.001-0.009,0-0.014,0.001l-0.338,0.079c-0.013,0.003-0.021,0.011-0.033,0.016c-0.011,0.003-0.022,0.002-0.033,0.007  l-0.36,0.16c-0.008,0.004-0.013,0.011-0.021,0.015s-0.017,0.004-0.024,0.009l-0.174,0.107c-0.007,0.004-0.01,0.011-0.017,0.016  c-0.006,0.004-0.014,0.005-0.02,0.01l-0.295,0.234c-0.013,0.011-0.02,0.025-0.031,0.037s-0.026,0.019-0.036,0.032l-0.179,0.239  c-0.002,0.003-0.002,0.007-0.004,0.009c-0.014,0.02-0.021,0.042-0.03,0.063c-0.012,0.024-0.024,0.049-0.03,0.075  c-0.001,0.003-0.003,0.005-0.003,0.008L32.64,21.23c-0.003,0.016,0.002,0.03,0.001,0.046C32.639,21.306,32.637,21.334,32.642,21.363  z M34.392,20.641l0.004,0.001l-0.043,0.062l-0.237,0.187l-0.322,0.177L33.54,21.15l-0.082,0.006L33.5,21.1l0.239-0.19l0.136-0.083  l0.302-0.135L34.392,20.641z"/><path fill="#000000" d="M65.293,20.528c0.001,0.017-0.003,0.033,0,0.051l0.042,0.216c0,0,0,0,0,0.001  c0.01,0.048,0.028,0.096,0.059,0.14l0.164,0.239c0.008,0.012,0.021,0.016,0.029,0.026c0.017,0.019,0.028,0.041,0.049,0.057  l0.31,0.243c0.005,0.004,0.013,0.002,0.018,0.006c0.012,0.009,0.02,0.021,0.033,0.028l0.375,0.206  c0.01,0.005,0.02,0.003,0.029,0.008c0.013,0.005,0.021,0.015,0.035,0.02l0.333,0.108c0.02,0.007,0.039,0.006,0.059,0.01  c0.011,0.001,0.019,0.007,0.029,0.008l0.309,0.023c0.01,0.001,0.02,0.001,0.028,0.001c0.046,0,0.093-0.009,0.138-0.026l0.202-0.08  c0.01-0.004,0.017-0.012,0.025-0.017c0.018-0.009,0.031-0.02,0.047-0.03c0.038-0.026,0.068-0.057,0.094-0.094  c0.006-0.009,0.017-0.013,0.021-0.021l0.094-0.164c0.01-0.017,0.011-0.035,0.018-0.053c0.009-0.023,0.02-0.046,0.023-0.07  c0.005-0.029,0.003-0.058,0.001-0.087c-0.001-0.016,0.004-0.03,0.001-0.046l-0.042-0.225c-0.001-0.003-0.003-0.005-0.003-0.008  c-0.005-0.024-0.018-0.048-0.028-0.071s-0.019-0.048-0.032-0.068c-0.002-0.002-0.002-0.005-0.004-0.008l-0.179-0.239  c-0.01-0.014-0.024-0.021-0.036-0.032c-0.011-0.012-0.018-0.026-0.031-0.037l-0.295-0.234c-0.006-0.005-0.014-0.006-0.02-0.01  c-0.007-0.005-0.01-0.012-0.017-0.016l-0.174-0.107c-0.008-0.005-0.018-0.005-0.025-0.01c-0.007-0.003-0.012-0.01-0.019-0.013  l-0.356-0.16c-0.011-0.005-0.022-0.004-0.034-0.008s-0.021-0.013-0.034-0.016l-0.342-0.079c-0.005-0.001-0.009,0-0.013-0.001  c-0.021-0.004-0.043-0.002-0.065-0.002c-0.033-0.002-0.066-0.003-0.098,0.005c-0.001,0-0.001,0-0.002,0l-0.347,0.089l0,0  c-0.07,0.018-0.131,0.061-0.182,0.117c-0.017,0.02-0.037,0.036-0.05,0.059c0,0-0.001,0-0.001,0.001l-0.094,0.164  c-0.009,0.016-0.01,0.033-0.017,0.05c-0.01,0.024-0.021,0.049-0.025,0.076S65.292,20.501,65.293,20.528z M66.619,20.823l0.139,0.086  l0.239,0.19l0.042,0.057l-0.082-0.007l-0.253-0.082l-0.322-0.177l-0.237-0.187l-0.043-0.062l0.005-0.001l0.219,0.051L66.619,20.823z  "/><text x="0" y="115" fill="#000000" font-size="5px" font-weight="bold" font-family="'Helvetica Neue', Helvetica, Arial-Unicode, Arial, Sans-serif">Created by Lluisa Iborra</text><text x="0" y="120" fill="#000000" font-size="5px" font-weight="bold" font-family="'Helvetica Neue', Helvetica, Arial-Unicode, Arial, Sans-serif">from the Noun Project</text></svg>